<?xml version="1.0" standalone="no"?>
<!DOCTYPE svg PUBLIC "-//W3C//DTD SVG 1.1//EN" "http://www.w3.org/Graphics/SVG/1.1/DTD/svg11.dtd" >
<svg xmlns="http://www.w3.org/2000/svg" xmlns:xlink="http://www.w3.org/1999/xlink" version="1.1">
<metadata>
Created by FontForge 20230101 at Fri Sep 28 13:45:46 2018
 By Unknown
</metadata>
<defs>
<font id="PMASansWide-Mono" horiz-adv-x="600" >
  <font-face 
    font-family="PMA Sans Wide Mono"
    font-weight="400"
    font-stretch="normal"
    units-per-em="1000"
    panose-1="0 0 0 0 0 0 0 0 0 0"
    ascent="825"
    descent="-175"
    x-height="500"
    cap-height="715"
    bbox="10 -184 4145 950"
    underline-thickness="0"
    underline-position="0"
    unicode-range="U+0020-EA39"
  />
<missing-glyph horiz-adv-x="521" 
d="M451 0h-381v730h381v-730zM120 680v-630h281v630h-281z" />
    <glyph glyph-name=".notdef" horiz-adv-x="521" 
d="M451 0h-381v730h381v-730zM120 680v-630h281v630h-281z" />
    <glyph glyph-name=".null" horiz-adv-x="0" 
 />
    <glyph glyph-name="nonmarkingreturn" horiz-adv-x="333" 
 />
    <glyph glyph-name="space" unicode=" " 
 />
    <glyph glyph-name="exclam" unicode="!" 
d="M260 715h79l-10 -518h-59zM300 126q27 0 46.5 -20t19.5 -46t-19.5 -46t-46.5 -20t-46.5 20t-19.5 46t19.5 46t46.5 20z" />
    <glyph glyph-name="quotedbl" unicode="&#x22;" 
d="M259 715l-8 -133l-11 -123h-57l-11 123l-8 133h95zM436 715l-8 -133l-11 -123h-57l-11 123l-8 133h95z" />
    <glyph glyph-name="numbersign" unicode="#" 
d="M52 307h114l15 133h-95v67h103l23 208h67l-23 -208h119l23 208h67l-23 -208h106v-67h-114l-15 -133h95v-67h-102l-27 -240h-67l27 240h-119l-27 -240h-67l27 240h-107v67zM233 307h119l15 133h-119z" />
    <glyph glyph-name="dollar" unicode="$" 
d="M506 524h-70q-8 54 -37.5 87.5t-69.5 42.5v-253q36 -13 70.5 -30.5t61 -41.5t43 -56.5t16.5 -76.5q0 -39 -16.5 -74.5t-43.5 -62.5t-64 -44t-77 -20v-101h-54v103q-69 10 -124.5 63.5t-74.5 151.5h75q12 -63 45 -101t79 -49v288q-34 13 -64.5 31t-53 40.5t-35.5 52
t-13 66.5q0 70 50.5 121t125.5 59v82h54v-83q67 -9 116.5 -60t60.5 -135zM168 541q0 -40 27 -68.5t80 -50.5v233q-46 -7 -76.5 -40t-30.5 -74zM447 194q0 51 -36.5 82.5t-91.5 53.5v-271q55 6 91.5 44.5t36.5 90.5z" />
    <glyph glyph-name="percent" unicode="%" 
d="M160 447q-55 0 -93.5 39.5t-38.5 97.5q0 59 38.5 98t93.5 39t93.5 -39t38.5 -98q0 -58 -38.5 -97.5t-93.5 -39.5zM516 715l-361 -715h-71l361 715h71zM160 663q-31 0 -52 -23t-21 -56t21 -55.5t52 -22.5t52 22.5t21 55.5t-21 56t-52 23zM441 -6q-55 0 -93.5 39.5
t-38.5 97.5q0 59 38.5 98t93.5 39t93.5 -39t38.5 -98q0 -58 -38.5 -97.5t-93.5 -39.5zM441 210q-31 0 -52 -23t-21 -56t21 -55.5t52 -22.5t52 22.5t21 55.5t-21 56t-52 23z" />
    <glyph glyph-name="ampersand" unicode="&#x26;" 
d="M551 40l-53 -40l-52 69q-34 -37 -78 -56t-93 -19q-42 0 -80 14.5t-66.5 40.5t-45 63t-16.5 81q0 76 38.5 124t89.5 82q-31 44 -46 78.5t-15 79.5q0 29 10.5 58.5t30.5 53t49 38t66 14.5q33 0 60.5 -14t47 -35t30 -48t10.5 -52q0 -50 -33 -90.5t-99 -86.5q-4 -2 -7.5 -5
t-6.5 -5l145 -193q7 23 11 50.5t4 59.5v55h72v-57q0 -51 -10 -95t-28 -79zM206 557q0 -31 9.5 -55.5t37.5 -64.5q4 3 8.5 5.5t8.5 5.5q62 41 78 67.5t16 56.5q0 31 -18.5 56.5t-54.5 25.5q-40 0 -62.5 -28.5t-22.5 -68.5zM140 193q0 -63 39.5 -96.5t95.5 -33.5q37 0 70 15.5
t58 46.5l-168 221q-43 -30 -69 -64.5t-26 -88.5z" />
    <glyph glyph-name="quotesingle" unicode="'" 
d="M347 715l-8 -133l-11 -123h-57l-11 123l-8 133h95z" />
    <glyph glyph-name="parenleft" unicode="(" 
d="M442 -47h-74q-37 37 -69.5 82t-56.5 96t-38 108t-14 118t14 118t38 108t56.5 96t69.5 82h74q-37 -40 -69.5 -85.5t-57 -96.5t-38.5 -107t-14 -115t14 -115t38.5 -107t57 -96.5t69.5 -85.5z" />
    <glyph glyph-name="parenright" unicode=")" 
d="M158 -47q37 40 69.5 85.5t57 96.5t38.5 107t14 115t-14 115t-38.5 107t-57 96.5t-69.5 85.5h74q37 -37 69.5 -82t56.5 -96t38 -108t14 -118t-14 -118t-38 -108t-56.5 -96t-69.5 -82h-74z" />
    <glyph glyph-name="asterisk" unicode="*" 
d="M269 394l10 125l-103 -71l-31 53l113 54l-112 53l31 54l102 -71l-10 124h62l-11 -124l103 71l31 -54l-113 -53l114 -54l-31 -53l-104 71l11 -125h-62z" />
    <glyph glyph-name="plus" unicode="+" 
d="M120 373h146v150h68v-150h146v-68h-146v-150h-68v150h-146v68z" />
    <glyph glyph-name="comma" unicode="," 
d="M295 125q31 0 51.5 -23t20.5 -69q0 -87 -34 -122.5t-87 -35.5h-7v38h8q33 0 51.5 20.5t19.5 63.5q-6 -1 -11.5 -2t-11.5 -1q-24 0 -42.5 19t-18.5 49q0 25 17 44t44 19z" />
    <glyph glyph-name="hyphen" unicode="-" 
d="M433 323v-68h-266v68h266z" />
    <glyph glyph-name="period" unicode="." 
d="M300 126q27 0 46.5 -20t19.5 -46t-19.5 -46t-46.5 -20t-46.5 20t-19.5 46t19.5 46t46.5 20z" />
    <glyph glyph-name="slash" unicode="/" 
d="M550 755l-429 -886h-71l429 886h71z" />
    <glyph glyph-name="zero" unicode="0" 
d="M300 721q40 0 80.5 -29t72 -78t51.5 -115.5t20 -141.5q0 -74 -20 -140t-51.5 -115.5t-72 -78.5t-80.5 -29q-41 0 -81 29t-71.5 78.5t-51.5 115.5t-20 140q0 75 20 141.5t51.5 115.5t71.5 78t81 29zM300 652q-25 0 -51.5 -21.5t-48.5 -60.5t-36.5 -93.5t-14.5 -119.5
q0 -46 7.5 -87t20.5 -75l212 392q-20 31 -43.5 48t-45.5 17zM451 357q0 46 -7 86t-20 74l-212 -391q20 -30 43 -46.5t45 -16.5q24 0 51 22t49 60.5t36.5 93t14.5 118.5z" />
    <glyph glyph-name="one" unicode="1" 
d="M117 67h172v559l-196 -103v76l219 116h47v-648h172v-67h-414v67z" />
    <glyph glyph-name="two" unicode="2" 
d="M106 514q7 99 61 153t132 54q41 0 76.5 -14t61.5 -38.5t41 -57.5t15 -71q0 -63 -39 -127t-90 -135l-152 -211h291v-67h-393v45l197 272q55 77 83.5 126.5t28.5 97.5q0 44 -31 78t-83 34q-54 0 -88.5 -34.5t-39.5 -104.5h-71z" />
    <glyph glyph-name="three" unicode="3" 
d="M246 371v66h56q52 0 80 34.5t28 76.5q0 41 -30 73.5t-70 32.5q-43 0 -80.5 -36t-44.5 -104h-72q3 45 20.5 83t43.5 65.5t60.5 43t72.5 15.5q36 0 68 -14.5t55.5 -39t37.5 -55.5t14 -64q0 -43 -20.5 -78.5t-67.5 -59.5q60 -27 91.5 -77.5t31.5 -111.5q0 -46 -17 -87
t-45.5 -72t-66 -49.5t-77.5 -18.5q-43 0 -82 19t-68.5 51.5t-47 76.5t-18.5 93h73q1 -40 13 -71.5t32 -53.5t45.5 -34t52.5 -12q24 0 48 11t43 31.5t30.5 50t11.5 65.5q0 69 -41 109.5t-106 40.5h-54z" />
    <glyph glyph-name="four" unicode="4" 
d="M347 0v278h-271v64l272 373h69v-371h113v-66h-113v-278h-70zM157 344h190v260z" />
    <glyph glyph-name="five" unicode="5" 
d="M96 228h73q12 -77 51 -121.5t89 -44.5q53 0 94.5 52t41.5 128q0 37 -8 70t-23.5 57.5t-39.5 38.5t-56 14q-34 0 -65.5 -17t-53.5 -37l-62 5l11 342h355v-67h-287l-6 -201q22 18 51 30.5t60 12.5q47 0 84 -20t62 -53.5t38.5 -78.5t13.5 -95t-18 -95.5t-47.5 -79.5
t-67.5 -54t-77 -20q-37 0 -72 17t-64 47.5t-49.5 73.5t-27.5 96z" />
    <glyph glyph-name="six" unicode="6" 
d="M522 227q0 -43 -17.5 -84.5t-46 -74.5t-65.5 -53.5t-76 -20.5q-45 0 -86 22t-72 66t-49 111t-18 157q0 82 19 150.5t49.5 117.5t71.5 76t84 27q35 0 65 -14.5t53 -39.5t39.5 -59t23.5 -71h-75q-12 53 -39 84t-67 31q-26 0 -53 -19t-48 -55.5t-35.5 -90.5t-15.5 -123
q27 46 70.5 69.5t84.5 23.5q44 0 81.5 -20t64.5 -52t42 -73.5t15 -84.5zM317 63q26 0 50 14t42 37t28.5 52t10.5 60t-10 60t-27.5 52t-42 37t-52.5 14q-43 0 -86 -29.5t-62 -89.5q13 -114 56 -160.5t93 -46.5z" />
    <glyph glyph-name="seven" unicode="7" 
d="M216 0l226 648h-362v67h458v-21l-244 -694h-78z" />
    <glyph glyph-name="eight" unicode="8" 
d="M300 -6q-41 0 -81 19t-71 50.5t-50 73.5t-19 87q0 60 33 114t84 81q-38 24 -57.5 60t-19.5 74q0 29 14.5 59.5t39 54.5t57.5 39t70 15t70 -15t57.5 -39t39 -54.5t14.5 -59.5q0 -38 -19.5 -74t-57.5 -60q51 -27 84 -81t33 -114q0 -45 -19 -87t-50 -73.5t-71 -50.5t-81 -19
zM300 654q-41 0 -73.5 -30.5t-32.5 -70.5t32.5 -72t73.5 -32t73.5 32t32.5 72t-32.5 70.5t-73.5 30.5zM300 384q-25 0 -51.5 -11.5t-48 -32.5t-35 -50.5t-13.5 -65.5t13.5 -65.5t35 -51t48 -33t51.5 -11.5t51.5 11.5t48 33t35 51t13.5 65.5t-13.5 65.5t-35 50.5t-48 32.5
t-51.5 11.5z" />
    <glyph glyph-name="nine" unicode="9" 
d="M520 366q0 -82 -17.5 -150.5t-47 -117.5t-69.5 -76t-84 -27q-35 0 -67.5 15t-59 40t-45.5 58.5t-27 71.5h77q13 -54 47.5 -85t74.5 -31q55 0 99 74.5t47 212.5q-27 -45 -70 -67t-81 -22q-44 0 -81.5 19.5t-65 51t-43 72.5t-15.5 84t15.5 84.5t42.5 74.5t64.5 53.5
t81.5 20.5q43 0 84 -21.5t71.5 -65t49.5 -111t19 -158.5zM296 653q-31 0 -55.5 -14t-41 -37t-25 -52t-8.5 -60t10 -60t28 -51t42 -35.5t51 -13.5q40 0 84 28t63 88q-13 116 -57 161.5t-91 45.5z" />
    <glyph glyph-name="colon" unicode=":" 
d="M300 506q27 0 46.5 -20t19.5 -46t-19.5 -46t-46.5 -20t-46.5 20t-19.5 46t19.5 46t46.5 20zM300 126q27 0 46.5 -20t19.5 -46t-19.5 -46t-46.5 -20t-46.5 20t-19.5 46t19.5 46t46.5 20z" />
    <glyph glyph-name="semicolon" unicode=";" 
d="M300 506q27 0 46.5 -20t19.5 -46t-19.5 -46t-46.5 -20t-46.5 20t-19.5 46t19.5 46t46.5 20zM295 125q31 0 51.5 -23t20.5 -69q0 -87 -34 -122.5t-87 -35.5h-7v38h8q33 0 51.5 20.5t19.5 63.5q-6 -1 -11.5 -2t-11.5 -1q-24 0 -42.5 19t-18.5 49q0 25 17 44t44 19z" />
    <glyph glyph-name="less" unicode="&#x3c;" 
d="M120 300v76l360 162v-71l-294 -129l294 -130v-71z" />
    <glyph glyph-name="equal" unicode="=" 
d="M120 469h360v-68h-360v68zM120 276h360v-68h-360v68z" />
    <glyph glyph-name="greater" unicode="&#x3e;" 
d="M480 300l-360 -163v71l294 130l-294 129v71l360 -162v-76z" />
    <glyph glyph-name="question" unicode="?" 
d="M118 521q1 48 15.5 85.5t39.5 62.5t58.5 38.5t71.5 13.5q40 0 72 -14t54.5 -36.5t34.5 -53t12 -63.5q0 -51 -21 -84t-75 -77q-18 -15 -29.5 -27.5t-18 -27t-9 -33.5t-2.5 -47l-1 -61h-59l-1 63q-1 41 4 69t14.5 48t24.5 35t35 31q36 29 51.5 52.5t15.5 59.5q0 34 -26 66
t-76 32t-81 -32.5t-33 -99.5h-71zM292 -6q-27 0 -46.5 20t-19.5 46t19.5 46t46.5 20t46.5 -20t19.5 -46t-19.5 -46t-46.5 -20z" />
    <glyph glyph-name="at" unicode="@" 
d="M516 506v-438h-62v55q-15 -26 -36 -41.5t-45 -15.5q-25 0 -52 17.5t-48.5 46.5t-35.5 68t-14 82t13.5 80.5t34 65.5t47 44t51.5 16q23 0 45 -16.5t38 -41.5v77q0 34 -17 56t-61 22q-49 0 -93 -21t-76.5 -60t-52 -94t-19.5 -122q0 -70 20.5 -126.5t57.5 -96t88.5 -61
t113.5 -21.5q15 0 37.5 2.5t45.5 10.5v-56q-22 -7 -44.5 -9.5t-38.5 -2.5q-74 0 -136.5 25.5t-107.5 72t-70.5 113.5t-25.5 149q0 81 25 146.5t66 111t96 70.5t114 25q73 0 107.5 -39.5t34.5 -93.5zM286 280q0 -63 27.5 -108.5t57.5 -45.5q28 0 54.5 30.5t26.5 77.5v81
q0 40 -24 74.5t-52 34.5q-30 0 -60 -40.5t-30 -103.5z" />
    <glyph glyph-name="A" unicode="A" 
d="M339 715l213 -715h-73l-88 295h-185l-88 -295h-70l216 715h75zM226 362h146l-73 244z" />
    <glyph glyph-name="B" unicode="B" 
d="M98 0v715h221q42 0 78.5 -12.5t63.5 -34.5t42.5 -53t15.5 -66q0 -40 -22 -75t-63 -54q48 -25 83 -74.5t35 -119.5q0 -46 -17 -87t-45.5 -72t-66.5 -49t-81 -18h-244zM319 650h-151v-202h163q49 0 83 29.5t34 71.5q0 43 -35.5 72t-93.5 29zM337 385h-169v-320h174
q56 0 96.5 46.5t40.5 114.5q0 67 -42 113t-100 46z" />
    <glyph glyph-name="C" unicode="C" 
d="M538 477h-74q-23 83 -66.5 129t-89.5 46q-36 0 -70 -23.5t-59.5 -63t-41.5 -93.5t-16 -115t16 -114.5t41.5 -93.5t59.5 -63t70 -23q48 0 90 45.5t67 127.5h74q-14 -50 -37.5 -94.5t-53.5 -77t-66 -51.5t-74 -19q-52 0 -99.5 30.5t-83 80.5t-56.5 116t-21 136t21 136
t56.5 116.5t83 81t99.5 30.5q38 0 74 -18.5t66 -51t53.5 -77.5t36.5 -97z" />
    <glyph glyph-name="D" unicode="D" 
d="M93 0v715h192q54 0 103.5 -31t86 -82t58 -116t21.5 -133t-21.5 -131.5t-58 -112.5t-86 -79t-103.5 -30h-192zM285 650h-122v-585h122q40 0 76 24t62.5 63.5t42 92t15.5 108.5t-15.5 109.5t-42 95t-62.5 67t-76 25.5z" />
    <glyph glyph-name="E" unicode="E" 
d="M103 0v715h437v-67h-367v-214h242v-67h-242v-300h377v-67h-447z" />
    <glyph glyph-name="F" unicode="F" 
d="M113 0v715h429v-67h-359v-221h248v-67h-248v-360h-70z" />
    <glyph glyph-name="G" unicode="G" 
d="M540 470h-73q-10 43 -27.5 77t-39.5 57.5t-45.5 35.5t-45.5 12q-37 0 -71 -23t-60 -63t-41.5 -94t-15.5 -115t15.5 -114.5t41.5 -93.5t60 -63t71 -23q25 0 53 16t51.5 46t40.5 73t20 96h-228v65h303v-31q0 -77 -23 -139t-58.5 -105t-78 -66.5t-80.5 -23.5
q-53 0 -100.5 30.5t-83 80.5t-56.5 116t-21 136t21 136t56.5 116.5t83 81t100.5 30.5q39 0 76.5 -19t68 -52t53.5 -79.5t33 -100.5z" />
    <glyph glyph-name="H" unicode="H" 
d="M153 715v-288h294v288h70v-715h-70v360h-294v-360h-70v715h70z" />
    <glyph glyph-name="I" unicode="I" 
d="M512 67v-67h-423v67h174v581h-169v67h413v-67h-169v-581h174z" />
    <glyph glyph-name="J" unicode="J" 
d="M287 -6q-42 0 -79.5 16t-65 44.5t-43.5 68.5t-16 88v79h69v-78q0 -35 11.5 -62.5t30.5 -46.5t43.5 -29t49.5 -10q24 0 48 8t43 26t31 46t12 68v503h69v-503q0 -52 -16.5 -93t-44 -68.5t-64.5 -42t-78 -14.5z" />
    <glyph glyph-name="K" unicode="K" 
d="M168 715v-310l302 310h91l-250 -253l242 -462h-80l-213 410l-92 -94v-316h-70v715h70z" />
    <glyph glyph-name="L" unicode="L" 
d="M190 715v-648h345v-67h-415v715h70z" />
    <glyph glyph-name="M" unicode="M" 
d="M171 715l129 -420l129 420h105v-715h-67v621l-144 -460h-48l-142 465v-626h-67v715h105z" />
    <glyph glyph-name="N" unicode="N" 
d="M169 715l287 -595v595h69v-715h-87l-294 609v-609h-69v715h94z" />
    <glyph glyph-name="O" unicode="O" 
d="M300 721q49 0 95 -30.5t81 -81t56.5 -116.5t21.5 -136t-21.5 -136t-56.5 -116t-81 -80.5t-95 -30.5t-94.5 30.5t-81 80.5t-57 116t-21.5 136t21.5 136t57 116.5t81 81t94.5 30.5zM300 652q-32 0 -64.5 -23.5t-58.5 -63t-42 -93.5t-16 -115t16 -114.5t42 -93.5t58.5 -63
t64.5 -23q33 0 65.5 23t58 63t41.5 93.5t16 114.5t-16 115t-41.5 93.5t-58 63t-65.5 23.5z" />
    <glyph glyph-name="P" unicode="P" 
d="M108 0v715h265q41 0 77 -13t62.5 -35.5t41.5 -53t15 -64.5t-15 -64.5t-41.5 -53t-62.5 -35.5t-77 -13h-195v-383h-70zM373 650h-195v-202h195q56 0 90.5 28t34.5 73t-34.5 73t-90.5 28z" />
    <glyph glyph-name="Q" unicode="Q" 
d="M505 -23l-65 85q-31 -31 -67 -49.5t-73 -18.5q-49 0 -94.5 30.5t-81 80.5t-57 116t-21.5 136t21.5 136t57 116.5t81 81t94.5 30.5t95 -30.5t81 -81t56.5 -116.5t21.5 -136q0 -66 -19.5 -129.5t-51.5 -112.5l72 -94zM300 652q-32 0 -64.5 -23.5t-58.5 -63t-42 -93.5
t-16 -115t16 -114.5t42 -93.5t58.5 -63t64.5 -23q25 0 51 14t48 39l-111 144l50 44l100 -130q19 37 31 84.5t12 98.5q0 61 -16 115t-41.5 93.5t-58 63t-65.5 23.5z" />
    <glyph glyph-name="R" unicode="R" 
d="M108 0v715h245q84 0 140 -48.5t56 -116.5q0 -61 -45.5 -107t-117.5 -56l162 -387h-76l-158 385h-136v-385h-70zM353 650h-175v-200h175q57 0 91 27.5t34 72.5t-34 72.5t-91 27.5z" />
    <glyph glyph-name="S" unicode="S" 
d="M506 524h-70q-10 64 -48.5 97.5t-89.5 33.5q-54 0 -91.5 -34t-37.5 -80q0 -48 37.5 -78t109.5 -56q38 -13 74.5 -30.5t65.5 -42t46.5 -58.5t17.5 -80q0 -41 -18 -78t-48 -64.5t-69.5 -43.5t-82.5 -16q-40 0 -78 13.5t-69.5 40t-55 68t-33.5 96.5h75q14 -75 58.5 -113.5
t102.5 -38.5q60 0 102 39t42 95q0 57 -44.5 89.5t-109.5 55.5q-38 14 -73.5 32t-62 41.5t-42 55t-15.5 72.5q0 38 15.5 71t43 57.5t64.5 38.5t79 14q77 0 134.5 -52.5t70.5 -144.5z" />
    <glyph glyph-name="T" unicode="T" 
d="M62 715h476v-67h-203v-648h-70v648h-203v67z" />
    <glyph glyph-name="U" unicode="U" 
d="M299 -6q-44 0 -83 17.5t-67.5 50t-45 79.5t-16.5 104v470h70v-470q0 -89 43 -135.5t99 -46.5q28 0 54.5 12t46 34.5t31.5 57t12 78.5v470h70v-470q0 -57 -17 -104t-45.5 -79.5t-68 -50t-83.5 -17.5z" />
    <glyph glyph-name="V" unicode="V" 
d="M261 0l-214 715h76l178 -601l179 601h73l-217 -715h-75z" />
    <glyph glyph-name="W" unicode="W" 
d="M194 0h-76l-77 715h65l59 -569l105 459h55l109 -460l59 570h66l-76 -715h-77l-107 464z" />
    <glyph glyph-name="X" unicode="X" 
d="M65 715h79l156 -289l157 289h78l-192 -351l203 -364h-80l-166 299l-167 -299h-79l203 363z" />
    <glyph glyph-name="Y" unicode="Y" 
d="M301 328l-227 387h78l183 -315l144 315h75l-328 -715h-77z" />
    <glyph glyph-name="Z" unicode="Z" 
d="M514 654l-346 -587h346v-67h-430v61l346 587h-336v67h420v-61z" />
    <glyph glyph-name="bracketleft" unicode="[" 
d="M205 -47v808h226v-62h-158v-684h153v-62h-221z" />
    <glyph glyph-name="backslash" unicode="\" 
d="M50 755h71l429 -886h-71z" />
    <glyph glyph-name="bracketright" unicode="]" 
d="M174 699v62h221v-808h-226v62h158v684h-153z" />
    <glyph glyph-name="asciicircum" unicode="^" 
d="M263 715h76l197 -360h-75l-160 292l-161 -292h-75z" />
    <glyph glyph-name="underscore" unicode="_" 
d="M76 -55h448v-65h-448v65z" />
    <glyph glyph-name="grave" unicode="`" 
d="M195 715h90l68 -110h-63z" />
    <glyph glyph-name="a" unicode="a" 
d="M433 500h67v-500h-67v83q-31 -40 -74 -64.5t-83 -24.5q-36 0 -75.5 19.5t-72 53t-54 81t-21.5 102.5t21.5 102.5t54 81t72 53t75.5 19.5q40 0 83 -24.5t74 -64.5v83zM120 250q0 -44 16 -79.5t40 -60t52 -38t53 -13.5t52 11.5t49 30.5t36.5 45.5t14.5 55.5v96
q0 29 -14.5 55.5t-36.5 45.5t-49 30.5t-52 11.5t-53 -13.5t-52 -38t-40 -60t-16 -79.5z" />
    <glyph glyph-name="b" unicode="b" 
d="M167 715v-298q31 40 74 64.5t83 24.5q36 0 75.5 -19.5t72 -53t54 -81t21.5 -102.5t-21.5 -102.5t-54 -81t-72 -53t-75.5 -19.5q-40 0 -83 24.5t-74 64.5v-83h-67v715h67zM167 202q0 -29 14.5 -55.5t36.5 -45.5t49 -30.5t52 -11.5t53 13.5t52 38t40 60t16 79.5t-16 79.5
t-40 60t-52 38t-53 13.5t-52 -11.5t-49 -30.5t-36.5 -45.5t-14.5 -55.5v-96z" />
    <glyph glyph-name="c" unicode="c" 
d="M522 176q-10 -36 -31 -69t-50.5 -58t-65.5 -40t-75 -15q-40 0 -82 19.5t-75 53.5t-54.5 81t-21.5 102t21.5 102t54.5 81t75 53.5t82 19.5q39 0 74.5 -15.5t64.5 -40t50.5 -56t32.5 -63.5h-72q-16 46 -58.5 78t-91.5 32q-28 0 -58 -14t-53.5 -39t-39 -60t-15.5 -78
t15.5 -78t39 -60t53.5 -39t58 -14q48 0 89.5 32t60.5 85h72z" />
    <glyph glyph-name="d" unicode="d" 
d="M433 715h67v-715h-67v83q-31 -40 -74 -64.5t-83 -24.5q-36 0 -75.5 19.5t-72 53t-54 81t-21.5 102.5t21.5 102.5t54 81t72 53t75.5 19.5q40 0 83 -24.5t74 -64.5v298zM120 250q0 -44 16 -79.5t40 -60t52 -38t53 -13.5t52 11.5t49 30.5t36.5 45.5t14.5 55.5v96
q0 29 -14.5 55.5t-36.5 45.5t-49 30.5t-52 11.5t-53 -13.5t-52 -38t-40 -60t-16 -79.5z" />
    <glyph glyph-name="e" unicode="e" 
d="M531 239h-397q2 -40 18.5 -73.5t41 -57t54.5 -36.5t60 -13q58 0 96 30t52 71h71q-7 -30 -27 -60t-49.5 -53.5t-66 -38t-76.5 -14.5q-43 0 -86.5 19.5t-77.5 53.5t-55.5 81t-21.5 102t21.5 102t54.5 81t75 53.5t82 19.5q37 0 77.5 -17t74 -50t56 -83.5t23.5 -116.5z
M300 441q-24 0 -48.5 -10t-46.5 -28t-39.5 -44t-25.5 -58h316q-4 27 -18 52.5t-35 44.5t-47.5 31t-55.5 12z" />
    <glyph glyph-name="f" unicode="f" 
d="M73 500h154v83q0 35 15.5 61t39.5 43t54.5 25.5t60.5 8.5q31 0 61 -9.5t53.5 -28t38 -45.5t14.5 -62h-67q0 40 -30.5 62.5t-69.5 22.5q-40 0 -71.5 -20t-31.5 -58v-83h199v-61h-199v-439h-67v439h-154v61z" />
    <glyph glyph-name="g" unicode="g" 
d="M284 -181q-40 0 -77.5 10t-67 29t-48.5 45.5t-22 59.5h69q5 -36 47 -61t99 -25q63 0 106 27t43 72v133q-30 -39 -73 -64t-84 -25q-37 0 -76.5 19.5t-72 52.5t-53.5 77t-21 94t21 94t53.5 77t72 52.5t76.5 19.5q41 0 84 -25t73 -64v83h67v-524q0 -38 -18.5 -67.5
t-48.5 -49t-69 -30t-80 -10.5zM120 263q0 -40 16 -72.5t40 -56t52 -36.5t53 -13q24 0 51 11.5t49.5 31t37 45t14.5 52.5v76q0 27 -14.5 52.5t-37 45t-49.5 31t-51 11.5q-25 0 -53 -13t-52 -36.5t-40 -56t-16 -72.5z" />
    <glyph glyph-name="h" unicode="h" 
d="M311 506q35 0 68.5 -12.5t59 -34.5t41.5 -51.5t16 -63.5v-344h-67v341q0 37 -36.5 69t-85.5 32q-26 0 -50.5 -8.5t-43 -23t-30 -34t-11.5 -40.5v-336h-67v715h67v-277q25 34 63.5 51t75.5 17z" />
    <glyph glyph-name="i" unicode="i" 
d="M308 597q-25 0 -43.5 18.5t-18.5 43.5t18.5 43.5t43.5 18.5t43.5 -18.5t18.5 -43.5t-18.5 -43.5t-43.5 -18.5zM108 62h166v376h-172v62h239v-438h166v-62h-399v62z" />
    <glyph glyph-name="j" unicode="j" 
d="M308 597q-25 0 -43.5 18.5t-18.5 43.5t18.5 43.5t43.5 18.5t43.5 -18.5t18.5 -43.5t-18.5 -43.5t-43.5 -18.5zM274 -175v613h-182v62h249v-675h-67z" />
    <glyph glyph-name="k" unicode="k" 
d="M115 715h67v-415l249 200h98l-203 -161l210 -339h-73l-185 300l-96 -76v-224h-67v715z" />
    <glyph glyph-name="l" unicode="l" 
d="M108 62h166v591h-182v62h249v-653h166v-62h-399v62z" />
    <glyph glyph-name="m" unicode="m" 
d="M54 500h66v-43q19 25 43.5 37t43.5 12q31 0 59.5 -18t46.5 -48q19 34 49.5 50t55.5 16q49 0 88.5 -41t39.5 -101v-364h-66v366q0 30 -21 53t-46 23q-28 0 -54 -23t-26 -58v-361h-66v366q0 30 -21 53t-46 23q-28 0 -54 -23t-26 -58v-361h-66v500z" />
    <glyph glyph-name="n" unicode="n" 
d="M105 500h67v-62q25 34 63.5 51t75.5 17q35 0 68.5 -12.5t59 -34.5t41.5 -51.5t16 -63.5v-344h-67v341q0 37 -36.5 69t-85.5 32q-26 0 -50.5 -8.5t-43 -23t-30 -34t-11.5 -40.5v-336h-67v500z" />
    <glyph glyph-name="o" unicode="o" 
d="M300 506q40 0 82 -19.5t75 -53t54.5 -81t21.5 -102.5t-21.5 -102t-54.5 -81t-75 -53.5t-82 -19.5t-82 19.5t-75 53.5t-54.5 81t-21.5 102t21.5 102.5t54.5 81t75 53t82 19.5zM300 441q-28 0 -57.5 -13.5t-53.5 -38.5t-39.5 -60.5t-15.5 -78.5t15.5 -78t39.5 -60t53.5 -39
t57.5 -14t57.5 14t53.5 39t39.5 60t15.5 78t-15.5 78.5t-39.5 60.5t-53.5 38.5t-57.5 13.5z" />
    <glyph glyph-name="p" unicode="p" 
d="M167 500v-83q31 40 74 64.5t83 24.5q36 0 75.5 -19.5t72 -53t54 -81t21.5 -102.5t-21.5 -102.5t-54 -81t-72 -53t-75.5 -19.5q-40 0 -83 24.5t-74 64.5v-258h-67v675h67zM167 202q0 -29 14.5 -55.5t36.5 -45.5t49 -30.5t52 -11.5t53 13.5t52 38t40 60t16 79.5t-16 79.5
t-40 60t-52 38t-53 13.5t-52 -11.5t-49 -30.5t-36.5 -45.5t-14.5 -55.5v-96z" />
    <glyph glyph-name="q" unicode="q" 
d="M433 500h67v-675h-67v258q-31 -40 -74 -64.5t-83 -24.5q-36 0 -75.5 19.5t-72 53t-54 81t-21.5 102.5t21.5 102.5t54 81t72 53t75.5 19.5q40 0 83 -24.5t74 -64.5v83zM120 250q0 -44 16 -79.5t40 -60t52 -38t53 -13.5t52 11.5t49 30.5t36.5 45.5t14.5 55.5v96
q0 29 -14.5 55.5t-36.5 45.5t-49 30.5t-52 11.5t-53 -13.5t-52 -38t-40 -60t-16 -79.5z" />
    <glyph glyph-name="r" unicode="r" 
d="M120 500h67v-64q26 34 65.5 52t79.5 18q32 0 65.5 -10.5t61 -31.5t45.5 -53t18 -76v-35h-67v36q0 24 -11.5 44t-29.5 33.5t-41 21t-46 7.5q-25 0 -50 -8t-45 -23.5t-32.5 -37.5t-12.5 -49v-324h-67v500z" />
    <glyph glyph-name="s" unicode="s" 
d="M507 360h-69q-9 39 -44 63t-92 24q-59 0 -96.5 -22.5t-37.5 -54.5q0 -33 35.5 -52t108.5 -27q103 -12 154.5 -45t51.5 -100q0 -34 -18 -62.5t-47 -48t-67.5 -30.5t-78.5 -11t-78 10t-69 29.5t-52 49t-26 67.5h71q8 -47 52 -72t102 -25q27 0 53 6t45.5 17.5t31.5 27.5
t12 37q0 40 -37 58.5t-112 27.5q-101 12 -150.5 45.5t-49.5 91.5q0 29 15.5 55t42.5 45t64.5 30.5t80.5 11.5q75 0 133 -41t71 -105z" />
    <glyph glyph-name="t" unicode="t" 
d="M365 -6q-63 0 -106.5 32t-43.5 96v317h-154v61h154v198h67v-198h199v-61h-199v-312q0 -32 21.5 -51t64.5 -19q25 0 53.5 5t58.5 15l1 -63q-31 -11 -59.5 -15.5t-56.5 -4.5z" />
    <glyph glyph-name="u" unicode="u" 
d="M289 -6q-35 0 -68.5 12.5t-59 34.5t-41.5 51.5t-16 63.5v344h67v-341q0 -37 36.5 -69t85.5 -32q26 0 50.5 8.5t43 23t30 34t11.5 40.5v336h67v-500h-67v62q-25 -34 -63.5 -51t-75.5 -17z" />
    <glyph glyph-name="v" unicode="v" 
d="M265 0l-211 500h72l174 -411l175 411h71l-213 -500h-68z" />
    <glyph glyph-name="w" unicode="w" 
d="M391 0l-90 314l-93 -314h-71l-92 500h69l68 -395l93 322h55l92 -317l69 390h64l-93 -500h-71z" />
    <glyph glyph-name="x" unicode="x" 
d="M70 500h78l153 -202l153 202h75l-185 -244l195 -256h-78l-162 212l-162 -212h-76l195 255z" />
    <glyph glyph-name="y" unicode="y" 
d="M542 500l-287 -675h-75l85 194l-217 481h76l178 -394l167 394h73z" />
    <glyph glyph-name="z" unicode="z" 
d="M502 447l-317 -384h317v-63h-403v57l314 380h-313v63h402v-53z" />
    <glyph glyph-name="braceleft" unicode="{" 
d="M445 -47q-126 0 -171 40t-35 121l12 101q6 53 -22.5 78.5t-97.5 29.5v68q69 4 97.5 29.5t22.5 78.5l-12 101q-10 81 35 121t171 40v-61q-49 0 -78 -6.5t-44 -20t-18 -34.5t1 -50l11 -85q8 -62 -19 -99.5t-91 -47.5q64 -10 91 -47.5t19 -99.5l-11 -85q-4 -29 -1 -50
t18 -34.5t44 -20t78 -6.5v-61z" />
    <glyph glyph-name="bar" unicode="|" 
d="M335 855v-995h-70v995h70z" />
    <glyph glyph-name="braceright" unicode="}" 
d="M155 -47v61q49 0 78 6.5t44 20t18 34.5t-1 50l-11 85q-8 62 19 99.5t91 47.5q-64 10 -91 47.5t-19 99.5l11 85q4 29 1 50t-18 34.5t-44 20t-78 6.5v61q126 0 171 -40t35 -121l-12 -101q-6 -53 22.5 -78.5t97.5 -29.5v-68q-69 -4 -97.5 -29.5t-22.5 -78.5l12 -101
q10 -81 -35 -121t-171 -40z" />
    <glyph glyph-name="asciitilde" unicode="~" 
d="M411 285q-29 0 -58 7t-56 16t-52 16t-47 7q-18 0 -28.5 -9.5t-11.5 -29.5h-54q0 52 27 79t64 27q29 0 57.5 -7.5t55 -16t51 -16t46.5 -7.5q18 0 27.5 9t10.5 29h54q0 -51 -24.5 -77.5t-61.5 -26.5z" />
    <glyph glyph-name="exclamdown" unicode="&#xa1;" 
d="M300 458q-27 0 -46.5 20t-19.5 46t19.5 46t46.5 20t46.5 -20t19.5 -46t-19.5 -46t-46.5 -20zM260 -131l10 518h59l10 -518h-79z" />
    <glyph glyph-name="cent" unicode="&#xa2;" 
d="M522 176q-9 -34 -28.5 -65.5t-46.5 -56t-60 -40.5t-70 -19v-101h-54v104q-37 8 -72 30t-62.5 55t-44.5 75.5t-17 91.5t17 91.5t44.5 75.5t62.5 55t72 30v80h54v-77q36 -3 69 -19.5t59.5 -41t46.5 -54t30 -59.5h-72q-15 42 -52 72.5t-81 36.5v-380q43 5 79.5 36t53.5 80
h72zM134 250q0 -36 11 -67t29 -54.5t41.5 -40t47.5 -23.5v370q-24 -7 -47.5 -23.5t-41.5 -40t-29 -54.5t-11 -67z" />
    <glyph glyph-name="sterling" unicode="&#xa3;" 
d="M101 284h70v68h-70v61h70v137q0 36 14 67.5t37 54.5t54.5 36t65.5 13q74 0 117.5 -53.5t50.5 -138.5h-72q-6 58 -29.5 91t-66.5 33q-44 0 -70.5 -29.5t-26.5 -72.5v-138h166l9 -61h-175v-68h186l10 -61h-196v-156h295v-67h-469v65h100v158h-70v61z" />
    <glyph glyph-name="yen" unicode="&#xa5;" 
d="M118 280h147v68h-147v61h107l-170 306h76l168 -306h5l167 306h74l-170 -306h107v-61h-147v-68h147v-61h-147v-219h-70v219h-147v61z" />
    <glyph glyph-name="dieresis" unicode="&#xa8;" 
d="M224 710q19 0 34.5 -15t15.5 -34t-15.5 -34.5t-34.5 -15.5q-20 0 -34.5 15.5t-14.5 34.5t14.5 34t34.5 15zM376 710q20 0 34.5 -15t14.5 -34t-14.5 -34.5t-34.5 -15.5q-19 0 -34.5 15.5t-15.5 34.5t15.5 34t34.5 15z" />
    <glyph glyph-name="copyright" unicode="&#xa9;" horiz-adv-x="1200" 
d="M600 -17q-75 0 -140 29t-112.5 79t-75 118.5t-27.5 147.5t27.5 148t75 119t112.5 79t140 29t140 -29t112.5 -79t75 -119t27.5 -148t-27.5 -147.5t-75 -118.5t-112.5 -79t-140 -29zM600 38q63 0 117 25t93 68t61.5 101.5t22.5 125.5t-22.5 125.5t-61.5 101t-93 67.5
t-117 25t-117 -25t-93 -67.5t-61.5 -101t-22.5 -125.5t22.5 -125.5t61.5 -101.5t93 -68t117 -25zM751 420h-64q-9 49 -34.5 75.5t-53.5 26.5q-16 0 -33.5 -11.5t-32.5 -33t-24.5 -52t-9.5 -68.5q0 -36 9.5 -66.5t24.5 -52t32.5 -33.5t33.5 -12q30 0 55.5 27t32.5 68h64
q-5 -29 -19.5 -58t-35 -51t-46 -36t-51.5 -14q-29 0 -58.5 17.5t-52.5 48.5t-37.5 72.5t-14.5 89.5q0 49 14.5 91.5t37.5 72.5t52.5 47.5t58.5 17.5q26 0 52 -13.5t46.5 -36.5t35 -53t18.5 -63z" />
    <glyph glyph-name="guillemotleft" unicode="&#xab;" 
d="M103 287l155 213h79l-154 -213l154 -213h-79zM267 287l155 213h79l-154 -213l154 -213h-79z" />
    <glyph glyph-name="registered" unicode="&#xae;" 
d="M300 359q-73 0 -124 52t-51 129t51 129t124 52t124 -52t51 -129t-51 -129t-124 -52zM300 687q-58 0 -98 -42.5t-40 -104.5t40 -104.5t98 -42.5t98 42.5t40 104.5t-40 104.5t-98 42.5zM243 446v190h64q24 0 39 -14t15 -36q0 -16 -10.5 -28.5t-26.5 -16.5l40 -95h-34
l-38 93h-17v-93h-32zM307 604h-32v-34h32q10 0 16 4t6 12q0 10 -6 14t-16 4z" />
    <glyph glyph-name="macron" unicode="&#xaf;" 
d="M179 689h242v-58h-242v58z" />
    <glyph glyph-name="degree" unicode="&#xb0;" 
d="M300 505q-45 0 -76 31t-31 77t31 77t76 31t76 -31t31 -77t-31 -77t-76 -31zM300 557q23 0 38 16.5t15 39.5t-15 39.5t-38 16.5t-38 -16.5t-15 -39.5t15 -39.5t38 -16.5z" />
    <glyph glyph-name="acute" unicode="&#xb4;" 
d="M405 715l-95 -110h-63l68 110h90z" />
    <glyph glyph-name="paragraph" unicode="&#xb6;" 
d="M538 715v-61h-87v-654h-64v654h-36v-654h-64v373h-35q-41 0 -77 13.5t-62.5 36.5t-41.5 54.5t-15 66.5t15 66.5t41.5 54.5t62.5 36.5t77 13.5h286z" />
    <glyph glyph-name="cedilla" unicode="&#xb8;" 
d="M251 -69l16 88h48l-8 -46q31 -1 52.5 -21.5t21.5 -52.5q0 -37 -27.5 -60t-65.5 -23q-37 0 -63.5 23t-27.5 57h50q2 -14 14 -23.5t28 -9.5q17 0 27.5 9t10.5 25q0 15 -10 24.5t-35 9.5h-31z" />
    <glyph glyph-name="guillemotright" unicode="&#xbb;" 
d="M497 287l-155 -213h-79l154 213l-154 213h79zM333 287l-155 -213h-79l154 213l-154 213h79z" />
    <glyph glyph-name="questiondown" unicode="&#xbf;" 
d="M308 590q27 0 46.5 -20t19.5 -46t-19.5 -46t-46.5 -20t-46.5 20t-19.5 46t19.5 46t46.5 20zM482 63q-1 -48 -15.5 -85.5t-39.5 -62.5t-58.5 -38.5t-71.5 -13.5q-40 0 -72 14t-54.5 36.5t-34.5 53t-12 63.5q0 51 21 84t75 77q18 15 29.5 27.5t18 27t9 33.5t2.5 47l1 61h59
l1 -63q1 -41 -4 -69t-14.5 -48t-24.5 -35t-35 -31q-36 -29 -51.5 -52.5t-15.5 -59.5q0 -34 26 -66t76 -32t81 32.5t33 99.5h71z" />
    <glyph glyph-name="Agrave" unicode="&#xc0;" 
d="M339 715l213 -715h-73l-88 295h-185l-88 -295h-70l216 715h75zM226 362h146l-73 244zM185 900h90l68 -110h-63z" />
    <glyph glyph-name="Aacute" unicode="&#xc1;" 
d="M339 715l213 -715h-73l-88 295h-185l-88 -295h-70l216 715h75zM226 362h146l-73 244zM418 900l-95 -110h-63l68 110h90z" />
    <glyph glyph-name="Acircumflex" unicode="&#xc2;" 
d="M339 715l213 -715h-73l-88 295h-185l-88 -295h-70l216 715h75zM226 362h146l-73 244zM357 790l-57 61l-57 -61h-56l74 110h78l74 -110h-56z" />
    <glyph glyph-name="Atilde" unicode="&#xc3;" 
d="M339 715l213 -715h-73l-88 295h-185l-88 -295h-70l216 715h75zM226 362h146l-73 244zM351 804q-33 0 -55 15t-42 15q-10 0 -18 -7.5t-9 -23.5h-49q0 49 23.5 67.5t50.5 18.5q33 0 53.5 -15.5t40.5 -15.5q10 0 17 7t8 23h49q0 -49 -21 -66.5t-48 -17.5z" />
    <glyph glyph-name="Adieresis" unicode="&#xc4;" 
d="M339 715l213 -715h-73l-88 295h-185l-88 -295h-70l216 715h75zM226 362h146l-73 244zM224 895q19 0 34.5 -15t15.5 -34t-15.5 -34.5t-34.5 -15.5q-20 0 -34.5 15.5t-14.5 34.5t14.5 34t34.5 15zM376 895q20 0 34.5 -15t14.5 -34t-14.5 -34.5t-34.5 -15.5
q-19 0 -34.5 15.5t-15.5 34.5t15.5 34t34.5 15z" />
    <glyph glyph-name="Aring" unicode="&#xc5;" 
d="M339 715l213 -715h-73l-88 295h-185l-88 -295h-70l216 715h75zM226 362h146l-73 244zM300 786q-34 0 -58 24t-24 58t24 58t58 24t58 -24t24 -58t-24 -58t-58 -24zM300 910q-17 0 -28.5 -12.5t-11.5 -29.5q0 -16 11.5 -28.5t28.5 -12.5t28.5 12.5t11.5 28.5
q0 17 -11.5 29.5t-28.5 12.5z" />
    <glyph glyph-name="AE" unicode="&#xc6;" 
d="M237 715h313v-67h-193v-214h96v-67h-96v-300h203v-67h-273v290h-115l-86 -290h-73zM278 648l-86 -291h95v291h-9z" />
    <glyph glyph-name="Ccedilla" unicode="&#xc7;" 
d="M538 477h-74q-23 83 -66.5 129t-89.5 46q-36 0 -70 -23.5t-59.5 -63t-41.5 -93.5t-16 -115t16 -114.5t41.5 -93.5t59.5 -63t70 -23q48 0 90 45.5t67 127.5h74q-14 -50 -37.5 -94.5t-53.5 -77t-66 -51.5t-74 -19q-52 0 -99.5 30.5t-83 80.5t-56.5 116t-21 136t21 136
t56.5 116.5t83 81t99.5 30.5q38 0 74 -18.5t66 -51t53.5 -77.5t36.5 -97zM257 -69l16 88h48l-8 -46q31 -1 52.5 -21.5t21.5 -52.5q0 -37 -27.5 -60t-65.5 -23q-37 0 -63.5 23t-27.5 57h50q2 -14 14 -23.5t28 -9.5q17 0 27.5 9t10.5 25q0 15 -10 24.5t-35 9.5h-31z" />
    <glyph glyph-name="Egrave" unicode="&#xc8;" 
d="M103 0v715h437v-67h-367v-214h242v-67h-242v-300h377v-67h-447zM215 900h90l68 -110h-63z" />
    <glyph glyph-name="Eacute" unicode="&#xc9;" 
d="M103 0v715h437v-67h-367v-214h242v-67h-242v-300h377v-67h-447zM428 900l-95 -110h-63l68 110h90z" />
    <glyph glyph-name="Ecircumflex" unicode="&#xca;" 
d="M103 0v715h437v-67h-367v-214h242v-67h-242v-300h377v-67h-447zM383 790l-57 61l-57 -61h-56l74 110h78l74 -110h-56z" />
    <glyph glyph-name="Edieresis" unicode="&#xcb;" 
d="M103 0v715h437v-67h-367v-214h242v-67h-242v-300h377v-67h-447zM251 895q19 0 34.5 -15t15.5 -34t-15.5 -34.5t-34.5 -15.5q-20 0 -34.5 15.5t-14.5 34.5t14.5 34t34.5 15zM403 895q20 0 34.5 -15t14.5 -34t-14.5 -34.5t-34.5 -15.5q-19 0 -34.5 15.5t-15.5 34.5t15.5 34
t34.5 15z" />
    <glyph glyph-name="Igrave" unicode="&#xcc;" 
d="M514 67v-67h-423v67h174v581h-169v67h413v-67h-169v-581h174zM183 900h90l68 -110h-63z" />
    <glyph glyph-name="Iacute" unicode="&#xcd;" 
d="M512 67v-67h-423v67h174v581h-169v67h413v-67h-169v-581h174zM422 900l-95 -110h-63l68 110h90z" />
    <glyph glyph-name="Icircumflex" unicode="&#xce;" 
d="M512 67v-67h-423v67h174v581h-169v67h413v-67h-169v-581h174zM358 790l-57 61l-57 -61h-56l74 110h78l74 -110h-56z" />
    <glyph glyph-name="Idieresis" unicode="&#xcf;" 
d="M512 67v-67h-423v67h174v581h-169v67h413v-67h-169v-581h174zM224 895q19 0 34.5 -15t15.5 -34t-15.5 -34.5t-34.5 -15.5q-20 0 -34.5 15.5t-14.5 34.5t14.5 34t34.5 15zM376 895q20 0 34.5 -15t14.5 -34t-14.5 -34.5t-34.5 -15.5q-19 0 -34.5 15.5t-15.5 34.5t15.5 34
t34.5 15z" />
    <glyph glyph-name="Eth" unicode="&#xd0;" 
d="M24 412h69v303h192q54 0 103.5 -31t86 -82t58 -116t21.5 -133t-21.5 -131.5t-58 -112.5t-86 -79t-103.5 -30h-192v347h-69v65zM339 347h-176v-282h122q40 0 76 24t62.5 63.5t42 92t15.5 108.5t-14 109.5t-39 95t-59 67t-74 25.5h-132v-238h176v-65z" />
    <glyph glyph-name="Ntilde" unicode="&#xd1;" 
d="M169 715l287 -595v595h69v-715h-87l-294 609v-609h-69v715h94zM348 804q-33 0 -55 15t-42 15q-10 0 -18 -7.5t-9 -23.5h-49q0 49 23.5 67.5t50.5 18.5q33 0 53.5 -15.5t40.5 -15.5q10 0 17 7t8 23h49q0 -49 -21 -66.5t-48 -17.5z" />
    <glyph glyph-name="Ograve" unicode="&#xd2;" 
d="M300 721q49 0 95 -30.5t81 -81t56.5 -116.5t21.5 -136t-21.5 -136t-56.5 -116t-81 -80.5t-95 -30.5t-94.5 30.5t-81 80.5t-57 116t-21.5 136t21.5 136t57 116.5t81 81t94.5 30.5zM300 652q-32 0 -64.5 -23.5t-58.5 -63t-42 -93.5t-16 -115t16 -114.5t42 -93.5t58.5 -63
t64.5 -23q33 0 65.5 23t58 63t41.5 93.5t16 114.5t-16 115t-41.5 93.5t-58 63t-65.5 23.5zM174 900h90l68 -110h-63z" />
    <glyph glyph-name="Oacute" unicode="&#xd3;" 
d="M300 721q49 0 95 -30.5t81 -81t56.5 -116.5t21.5 -136t-21.5 -136t-56.5 -116t-81 -80.5t-95 -30.5t-94.5 30.5t-81 80.5t-57 116t-21.5 136t21.5 136t57 116.5t81 81t94.5 30.5zM300 652q-32 0 -64.5 -23.5t-58.5 -63t-42 -93.5t-16 -115t16 -114.5t42 -93.5t58.5 -63
t64.5 -23q33 0 65.5 23t58 63t41.5 93.5t16 114.5t-16 115t-41.5 93.5t-58 63t-65.5 23.5zM426 900l-95 -110h-63l68 110h90z" />
    <glyph glyph-name="Ocircumflex" unicode="&#xd4;" 
d="M300 721q49 0 95 -30.5t81 -81t56.5 -116.5t21.5 -136t-21.5 -136t-56.5 -116t-81 -80.5t-95 -30.5t-94.5 30.5t-81 80.5t-57 116t-21.5 136t21.5 136t57 116.5t81 81t94.5 30.5zM300 652q-32 0 -64.5 -23.5t-58.5 -63t-42 -93.5t-16 -115t16 -114.5t42 -93.5t58.5 -63
t64.5 -23q33 0 65.5 23t58 63t41.5 93.5t16 114.5t-16 115t-41.5 93.5t-58 63t-65.5 23.5zM357 790l-57 61l-57 -61h-56l74 110h78l74 -110h-56z" />
    <glyph glyph-name="Otilde" unicode="&#xd5;" 
d="M300 721q49 0 95 -30.5t81 -81t56.5 -116.5t21.5 -136t-21.5 -136t-56.5 -116t-81 -80.5t-95 -30.5t-94.5 30.5t-81 80.5t-57 116t-21.5 136t21.5 136t57 116.5t81 81t94.5 30.5zM300 652q-32 0 -64.5 -23.5t-58.5 -63t-42 -93.5t-16 -115t16 -114.5t42 -93.5t58.5 -63
t64.5 -23q33 0 65.5 23t58 63t41.5 93.5t16 114.5t-16 115t-41.5 93.5t-58 63t-65.5 23.5zM349 804q-33 0 -55 15t-42 15q-10 0 -18 -7.5t-9 -23.5h-49q0 49 23.5 67.5t50.5 18.5q33 0 53.5 -15.5t40.5 -15.5q10 0 17 7t8 23h49q0 -49 -21 -66.5t-48 -17.5z" />
    <glyph glyph-name="Odieresis" unicode="&#xd6;" 
d="M300 721q49 0 95 -30.5t81 -81t56.5 -116.5t21.5 -136t-21.5 -136t-56.5 -116t-81 -80.5t-95 -30.5t-94.5 30.5t-81 80.5t-57 116t-21.5 136t21.5 136t57 116.5t81 81t94.5 30.5zM300 652q-32 0 -64.5 -23.5t-58.5 -63t-42 -93.5t-16 -115t16 -114.5t42 -93.5t58.5 -63
t64.5 -23q33 0 65.5 23t58 63t41.5 93.5t16 114.5t-16 115t-41.5 93.5t-58 63t-65.5 23.5zM224 895q19 0 34.5 -15t15.5 -34t-15.5 -34.5t-34.5 -15.5q-20 0 -34.5 15.5t-14.5 34.5t14.5 34t34.5 15zM376 895q20 0 34.5 -15t14.5 -34t-14.5 -34.5t-34.5 -15.5
q-19 0 -34.5 15.5t-15.5 34.5t15.5 34t34.5 15z" />
    <glyph glyph-name="multiply" unicode="&#xd7;" 
d="M135 218l121 121l-120 120l44 45l120 -120l121 120l44 -45l-120 -120l121 -121l-45 -44l-121 120l-120 -120z" />
    <glyph glyph-name="Oslash" unicode="&#xd8;" 
d="M300 721q36 0 70.5 -17t65.5 -47l38 66l57 -36l-50 -85q34 -50 53.5 -114t19.5 -131q0 -70 -21.5 -136t-56.5 -116t-81 -80.5t-95 -30.5q-36 0 -70.5 17t-65.5 47l-38 -66l-57 36l50 85q-33 50 -53 113.5t-20 130.5q0 70 21.5 136t57 116.5t81 81t94.5 30.5zM300 652
q-32 0 -64.5 -23.5t-58.5 -63t-42 -93.5t-16 -115q0 -49 10.5 -94t28.5 -82l242 416q-22 25 -48 40t-52 15zM481 357q0 49 -10.5 94t-28.5 82l-242 -415q22 -25 48.5 -40t51.5 -15q33 0 65.5 23t58 63t41.5 93.5t16 114.5z" />
    <glyph glyph-name="Ugrave" unicode="&#xd9;" 
d="M299 -6q-44 0 -83 17.5t-67.5 50t-45 79.5t-16.5 104v470h70v-470q0 -89 43 -135.5t99 -46.5q28 0 54.5 12t46 34.5t31.5 57t12 78.5v470h70v-470q0 -57 -17 -104t-45.5 -79.5t-68 -50t-83.5 -17.5zM177 900h90l68 -110h-63z" />
    <glyph glyph-name="Uacute" unicode="&#xda;" 
d="M299 -6q-44 0 -83 17.5t-67.5 50t-45 79.5t-16.5 104v470h70v-470q0 -89 43 -135.5t99 -46.5q28 0 54.5 12t46 34.5t31.5 57t12 78.5v470h70v-470q0 -57 -17 -104t-45.5 -79.5t-68 -50t-83.5 -17.5zM423 900l-95 -110h-63l68 110h90z" />
    <glyph glyph-name="Ucircumflex" unicode="&#xdb;" 
d="M299 -6q-44 0 -83 17.5t-67.5 50t-45 79.5t-16.5 104v470h70v-470q0 -89 43 -135.5t99 -46.5q28 0 54.5 12t46 34.5t31.5 57t12 78.5v470h70v-470q0 -57 -17 -104t-45.5 -79.5t-68 -50t-83.5 -17.5zM357 790l-57 61l-57 -61h-56l74 110h78l74 -110h-56z" />
    <glyph glyph-name="Udieresis" unicode="&#xdc;" 
d="M376 895q20 0 34.5 -15t14.5 -34t-14.5 -34.5t-34.5 -15.5q-19 0 -34.5 15.5t-15.5 34.5t15.5 34t34.5 15zM224 895q19 0 34.5 -15t15.5 -34t-15.5 -34.5t-34.5 -15.5q-20 0 -34.5 15.5t-14.5 34.5t14.5 34t34.5 15zM301 -6q-44 0 -83.5 17.5t-68 50t-45.5 79.5t-17 104
v470h70v-470q0 -44 12 -78.5t31.5 -57t46 -34.5t54.5 -12q56 0 99 46.5t43 135.5v470h70v-470q0 -57 -16.5 -104t-45 -79.5t-67.5 -50t-83 -17.5z" />
    <glyph glyph-name="Yacute" unicode="&#xdd;" 
d="M301 328l-227 387h78l183 -315l144 315h75l-328 -715h-77zM442 900l-95 -110h-63l68 110h90z" />
    <glyph glyph-name="Thorn" unicode="&#xde;" 
d="M178 715v-178h195q41 0 77 -13t62.5 -35.5t41.5 -53t15 -64.5t-15 -64.5t-41.5 -53t-62.5 -35.5t-77 -13h-195v-205h-70v715h70zM373 472h-195v-202h195q56 0 90.5 28t34.5 73t-34.5 73t-90.5 28z" />
    <glyph glyph-name="germandbls" unicode="&#xdf;" 
d="M303 721q77 0 129 -49t52 -121q0 -45 -20.5 -81t-63.5 -53q49 -19 84.5 -65.5t35.5 -127.5q0 -46 -13.5 -87t-40 -71.5t-65 -48t-87.5 -17.5h-41v65h39q66 0 100.5 45.5t34.5 113.5q0 67 -36 112t-105 45h-33v63h33q58 0 83.5 33.5t25.5 73.5q0 42 -30.5 75t-81.5 33
q-48 0 -79.5 -27.5t-31.5 -76.5v-555h-67v555q0 41 15 72.5t40 52t57 31t66 10.5z" />
    <glyph glyph-name="agrave" unicode="&#xe0;" 
d="M433 500h67v-500h-67v83q-31 -40 -74 -64.5t-83 -24.5q-36 0 -75.5 19.5t-72 53t-54 81t-21.5 102.5t21.5 102.5t54 81t72 53t75.5 19.5q40 0 83 -24.5t74 -64.5v83zM120 250q0 -44 16 -79.5t40 -60t52 -38t53 -13.5t52 11.5t49 30.5t36.5 45.5t14.5 55.5v96
q0 29 -14.5 55.5t-36.5 45.5t-49 30.5t-52 11.5t-53 -13.5t-52 -38t-40 -60t-16 -79.5zM156 710h90l68 -110h-63z" />
    <glyph glyph-name="aacute" unicode="&#xe1;" 
d="M433 500h67v-500h-67v83q-31 -40 -74 -64.5t-83 -24.5q-36 0 -75.5 19.5t-72 53t-54 81t-21.5 102.5t21.5 102.5t54 81t72 53t75.5 19.5q40 0 83 -24.5t74 -64.5v83zM120 250q0 -44 16 -79.5t40 -60t52 -38t53 -13.5t52 11.5t49 30.5t36.5 45.5t14.5 55.5v96
q0 29 -14.5 55.5t-36.5 45.5t-49 30.5t-52 11.5t-53 -13.5t-52 -38t-40 -60t-16 -79.5zM407 710l-95 -110h-63l68 110h90z" />
    <glyph glyph-name="acircumflex" unicode="&#xe2;" 
d="M433 500h67v-500h-67v83q-31 -40 -74 -64.5t-83 -24.5q-36 0 -75.5 19.5t-72 53t-54 81t-21.5 102.5t21.5 102.5t54 81t72 53t75.5 19.5q40 0 83 -24.5t74 -64.5v83zM120 250q0 -44 16 -79.5t40 -60t52 -38t53 -13.5t52 11.5t49 30.5t36.5 45.5t14.5 55.5v96
q0 29 -14.5 55.5t-36.5 45.5t-49 30.5t-52 11.5t-53 -13.5t-52 -38t-40 -60t-16 -79.5zM339 600l-57 61l-57 -61h-56l74 110h78l74 -110h-56z" />
    <glyph glyph-name="atilde" unicode="&#xe3;" 
d="M433 500h67v-500h-67v83q-31 -40 -74 -64.5t-83 -24.5q-36 0 -75.5 19.5t-72 53t-54 81t-21.5 102.5t21.5 102.5t54 81t72 53t75.5 19.5q40 0 83 -24.5t74 -64.5v83zM120 250q0 -44 16 -79.5t40 -60t52 -38t53 -13.5t52 11.5t49 30.5t36.5 45.5t14.5 55.5v96
q0 29 -14.5 55.5t-36.5 45.5t-49 30.5t-52 11.5t-53 -13.5t-52 -38t-40 -60t-16 -79.5zM338 613q-33 0 -55 15t-42 15q-10 0 -18 -7.5t-9 -23.5h-49q0 49 23.5 67.5t50.5 18.5q33 0 53.5 -15.5t40.5 -15.5q10 0 17 7t8 23h49q0 -49 -21 -66.5t-48 -17.5z" />
    <glyph glyph-name="adieresis" unicode="&#xe4;" 
d="M433 500h67v-500h-67v83q-31 -40 -74 -64.5t-83 -24.5q-36 0 -75.5 19.5t-72 53t-54 81t-21.5 102.5t21.5 102.5t54 81t72 53t75.5 19.5q40 0 83 -24.5t74 -64.5v83zM120 250q0 -44 16 -79.5t40 -60t52 -38t53 -13.5t52 11.5t49 30.5t36.5 45.5t14.5 55.5v96
q0 29 -14.5 55.5t-36.5 45.5t-49 30.5t-52 11.5t-53 -13.5t-52 -38t-40 -60t-16 -79.5zM212 696q19 0 34.5 -15t15.5 -34t-15.5 -34.5t-34.5 -15.5q-20 0 -34.5 15.5t-14.5 34.5t14.5 34t34.5 15zM364 696q20 0 34.5 -15t14.5 -34t-14.5 -34.5t-34.5 -15.5q-19 0 -34.5 15.5
t-15.5 34.5t15.5 34t34.5 15z" />
    <glyph glyph-name="aring" unicode="&#xe5;" 
d="M433 500h67v-500h-67v83q-31 -40 -74 -64.5t-83 -24.5q-36 0 -75.5 19.5t-72 53t-54 81t-21.5 102.5t21.5 102.5t54 81t72 53t75.5 19.5q40 0 83 -24.5t74 -64.5v83zM120 250q0 -44 16 -79.5t40 -60t52 -38t53 -13.5t52 11.5t49 30.5t36.5 45.5t14.5 55.5v96
q0 29 -14.5 55.5t-36.5 45.5t-49 30.5t-52 11.5t-53 -13.5t-52 -38t-40 -60t-16 -79.5zM288 573q-34 0 -58 24t-24 58t24 58t58 24t58 -24t24 -58t-24 -58t-58 -24zM288 697q-17 0 -28.5 -12.5t-11.5 -29.5q0 -16 11.5 -28.5t28.5 -12.5t28.5 12.5t11.5 28.5
q0 17 -11.5 29.5t-28.5 12.5z" />
    <glyph glyph-name="ae" unicode="&#xe6;" 
d="M266 500h65v-68q17 34 42 54t54 20q27 0 54.5 -17t49.5 -50t36.5 -83.5t15.5 -116.5h-252q3 -81 34 -129.5t62 -48.5t51.5 29.5t32.5 71.5h67q-6 -31 -20.5 -61t-34.5 -53.5t-45 -38.5t-51 -15q-29 0 -54 20t-42 54v-68h-65v58q-16 -29 -39.5 -46.5t-50.5 -17.5
q-30 0 -58 20.5t-50 55.5t-35 82t-13 98t13 98t35 82t50 55.5t58 20.5q27 0 50.5 -17.5t39.5 -46.5v58zM87 250q0 -40 9 -75t22.5 -60.5t30.5 -40t32 -14.5q28 0 56.5 41.5t28.5 100.5v96q0 59 -28.5 100.5t-56.5 41.5q-15 0 -32 -14.5t-30.5 -40t-22.5 -60.5t-9 -75z
M427 439q-27 0 -54.5 -37.5t-37.5 -100.5h175q-7 60 -31 99t-52 39z" />
    <glyph glyph-name="ccedilla" unicode="&#xe7;" 
d="M522 176q-10 -36 -31 -69t-50.5 -58t-65.5 -40t-75 -15q-40 0 -82 19.5t-75 53.5t-54.5 81t-21.5 102t21.5 102t54.5 81t75 53.5t82 19.5q39 0 74.5 -15.5t64.5 -40t50.5 -56t32.5 -63.5h-72q-16 46 -58.5 78t-91.5 32q-28 0 -58 -14t-53.5 -39t-39 -60t-15.5 -78
t15.5 -78t39 -60t53.5 -39t58 -14q48 0 89.5 32t60.5 85h72zM265 -69l16 88h48l-8 -46q31 -1 52.5 -21.5t21.5 -52.5q0 -37 -27.5 -60t-65.5 -23q-37 0 -63.5 23t-27.5 57h50q2 -14 14 -23.5t28 -9.5q17 0 27.5 9t10.5 25q0 15 -10 24.5t-35 9.5h-31z" />
    <glyph glyph-name="egrave" unicode="&#xe8;" 
d="M531 239h-397q2 -40 18.5 -73.5t41 -57t54.5 -36.5t60 -13q58 0 96 30t52 71h71q-7 -30 -27 -60t-49.5 -53.5t-66 -38t-76.5 -14.5q-43 0 -86.5 19.5t-77.5 53.5t-55.5 81t-21.5 102t21.5 102t54.5 81t75 53.5t82 19.5q37 0 77.5 -17t74 -50t56 -83.5t23.5 -116.5z
M300 441q-24 0 -48.5 -10t-46.5 -28t-39.5 -44t-25.5 -58h316q-4 27 -18 52.5t-35 44.5t-47.5 31t-55.5 12zM180 710h90l68 -110h-63z" />
    <glyph glyph-name="eacute" unicode="&#xe9;" 
d="M531 239h-397q2 -40 18.5 -73.5t41 -57t54.5 -36.5t60 -13q58 0 96 30t52 71h71q-7 -30 -27 -60t-49.5 -53.5t-66 -38t-76.5 -14.5q-43 0 -86.5 19.5t-77.5 53.5t-55.5 81t-21.5 102t21.5 102t54.5 81t75 53.5t82 19.5q37 0 77.5 -17t74 -50t56 -83.5t23.5 -116.5z
M300 441q-24 0 -48.5 -10t-46.5 -28t-39.5 -44t-25.5 -58h316q-4 27 -18 52.5t-35 44.5t-47.5 31t-55.5 12zM418 710l-95 -110h-63l68 110h90z" />
    <glyph glyph-name="ecircumflex" unicode="&#xea;" 
d="M531 239h-397q2 -40 18.5 -73.5t41 -57t54.5 -36.5t60 -13q58 0 96 30t52 71h71q-7 -30 -27 -60t-49.5 -53.5t-66 -38t-76.5 -14.5q-43 0 -86.5 19.5t-77.5 53.5t-55.5 81t-21.5 102t21.5 102t54.5 81t75 53.5t82 19.5q37 0 77.5 -17t74 -50t56 -83.5t23.5 -116.5z
M300 441q-24 0 -48.5 -10t-46.5 -28t-39.5 -44t-25.5 -58h316q-4 27 -18 52.5t-35 44.5t-47.5 31t-55.5 12zM357 600l-57 61l-57 -61h-56l74 110h78l74 -110h-56z" />
    <glyph glyph-name="edieresis" unicode="&#xeb;" 
d="M531 239h-397q2 -40 18.5 -73.5t41 -57t54.5 -36.5t60 -13q58 0 96 30t52 71h71q-7 -30 -27 -60t-49.5 -53.5t-66 -38t-76.5 -14.5q-43 0 -86.5 19.5t-77.5 53.5t-55.5 81t-21.5 102t21.5 102t54.5 81t75 53.5t82 19.5q37 0 77.5 -17t74 -50t56 -83.5t23.5 -116.5z
M300 441q-24 0 -48.5 -10t-46.5 -28t-39.5 -44t-25.5 -58h316q-4 27 -18 52.5t-35 44.5t-47.5 31t-55.5 12zM224 696q19 0 34.5 -15t15.5 -34t-15.5 -34.5t-34.5 -15.5q-20 0 -34.5 15.5t-14.5 34.5t14.5 34t34.5 15zM376 696q20 0 34.5 -15t14.5 -34t-14.5 -34.5
t-34.5 -15.5q-19 0 -34.5 15.5t-15.5 34.5t15.5 34t34.5 15z" />
    <glyph glyph-name="igrave" unicode="&#xec;" 
d="M108 62h166v376h-172v62h239v-438h166v-62h-399v62zM180 710h90l68 -110h-63z" />
    <glyph glyph-name="iacute" unicode="&#xed;" 
d="M108 62h166v376h-172v62h239v-438h166v-62h-399v62zM422 710l-95 -110h-63l68 110h90z" />
    <glyph glyph-name="icircumflex" unicode="&#xee;" 
d="M108 62h166v376h-172v62h239v-438h166v-62h-399v62zM358 600l-57 61l-57 -61h-56l74 110h78l74 -110h-56z" />
    <glyph glyph-name="idieresis" unicode="&#xef;" 
d="M108 62h166v376h-172v62h239v-438h166v-62h-399v62zM225 696q19 0 34.5 -15t15.5 -34t-15.5 -34.5t-34.5 -15.5q-20 0 -34.5 15.5t-14.5 34.5t14.5 34t34.5 15zM377 696q20 0 34.5 -15t14.5 -34t-14.5 -34.5t-34.5 -15.5q-19 0 -34.5 15.5t-15.5 34.5t15.5 34t34.5 15z
" />
    <glyph glyph-name="eth" unicode="&#xf0;" 
d="M295 506q41 0 77 -20t66 -55q-9 37 -37.5 76.5t-77.5 83.5l-140 -73l-26 50l120 63q-24 19 -52 40.5t-59 43.5h93l38 -28t36 -27l77 40l26 -50l-56 -29q71 -63 113 -145.5t42 -210.5q0 -62 -21.5 -112t-55.5 -85.5t-75.5 -54.5t-81.5 -19q-41 0 -82.5 19.5t-75 53.5
t-54.5 81t-21 102t21 102.5t53.5 81t73 53t79.5 19.5zM300 441q-28 0 -57.5 -14t-53.5 -39t-39.5 -60t-15.5 -78t15.5 -78t39.5 -60t53.5 -39t57.5 -14t57.5 14t53.5 39t39.5 60t15.5 78t-15.5 78.5t-39.5 60.5t-53.5 38.5t-57.5 13.5z" />
    <glyph glyph-name="ntilde" unicode="&#xf1;" 
d="M105 500h67v-62q25 34 63.5 51t75.5 17q35 0 68.5 -12.5t59 -34.5t41.5 -51.5t16 -63.5v-344h-67v341q0 37 -36.5 69t-85.5 32q-26 0 -50.5 -8.5t-43 -23t-30 -34t-11.5 -40.5v-336h-67v500zM364 613q-33 0 -55 15t-42 15q-10 0 -18 -7.5t-9 -23.5h-49q0 49 23.5 67.5
t50.5 18.5q33 0 53.5 -15.5t40.5 -15.5q10 0 17 7t8 23h49q0 -49 -21 -66.5t-48 -17.5z" />
    <glyph glyph-name="ograve" unicode="&#xf2;" 
d="M300 506q40 0 82 -19.5t75 -53t54.5 -81t21.5 -102.5t-21.5 -102t-54.5 -81t-75 -53.5t-82 -19.5t-82 19.5t-75 53.5t-54.5 81t-21.5 102t21.5 102.5t54.5 81t75 53t82 19.5zM300 441q-28 0 -57.5 -13.5t-53.5 -38.5t-39.5 -60.5t-15.5 -78.5t15.5 -78t39.5 -60t53.5 -39
t57.5 -14t57.5 14t53.5 39t39.5 60t15.5 78t-15.5 78.5t-39.5 60.5t-53.5 38.5t-57.5 13.5zM173 710h90l68 -110h-63z" />
    <glyph glyph-name="oacute" unicode="&#xf3;" 
d="M300 506q40 0 82 -19.5t75 -53t54.5 -81t21.5 -102.5t-21.5 -102t-54.5 -81t-75 -53.5t-82 -19.5t-82 19.5t-75 53.5t-54.5 81t-21.5 102t21.5 102.5t54.5 81t75 53t82 19.5zM300 441q-28 0 -57.5 -13.5t-53.5 -38.5t-39.5 -60.5t-15.5 -78.5t15.5 -78t39.5 -60t53.5 -39
t57.5 -14t57.5 14t53.5 39t39.5 60t15.5 78t-15.5 78.5t-39.5 60.5t-53.5 38.5t-57.5 13.5zM427 710l-95 -110h-63l68 110h90z" />
    <glyph glyph-name="ocircumflex" unicode="&#xf4;" 
d="M300 506q40 0 82 -19.5t75 -53t54.5 -81t21.5 -102.5t-21.5 -102t-54.5 -81t-75 -53.5t-82 -19.5t-82 19.5t-75 53.5t-54.5 81t-21.5 102t21.5 102.5t54.5 81t75 53t82 19.5zM300 441q-28 0 -57.5 -13.5t-53.5 -38.5t-39.5 -60.5t-15.5 -78.5t15.5 -78t39.5 -60t53.5 -39
t57.5 -14t57.5 14t53.5 39t39.5 60t15.5 78t-15.5 78.5t-39.5 60.5t-53.5 38.5t-57.5 13.5zM357 600l-57 61l-57 -61h-56l74 110h78l74 -110h-56z" />
    <glyph glyph-name="otilde" unicode="&#xf5;" 
d="M300 506q40 0 82 -19.5t75 -53t54.5 -81t21.5 -102.5t-21.5 -102t-54.5 -81t-75 -53.5t-82 -19.5t-82 19.5t-75 53.5t-54.5 81t-21.5 102t21.5 102.5t54.5 81t75 53t82 19.5zM300 441q-28 0 -57.5 -13.5t-53.5 -38.5t-39.5 -60.5t-15.5 -78.5t15.5 -78t39.5 -60t53.5 -39
t57.5 -14t57.5 14t53.5 39t39.5 60t15.5 78t-15.5 78.5t-39.5 60.5t-53.5 38.5t-57.5 13.5zM347 614q-33 0 -55 15t-42 15q-10 0 -18 -7.5t-9 -23.5h-49q0 49 23.5 67.5t50.5 18.5q33 0 53.5 -15.5t40.5 -15.5q10 0 17 7t8 23h49q0 -49 -21 -66.5t-48 -17.5z" />
    <glyph glyph-name="odieresis" unicode="&#xf6;" 
d="M300 506q40 0 82 -19.5t75 -53t54.5 -81t21.5 -102.5t-21.5 -102t-54.5 -81t-75 -53.5t-82 -19.5t-82 19.5t-75 53.5t-54.5 81t-21.5 102t21.5 102.5t54.5 81t75 53t82 19.5zM300 441q-28 0 -57.5 -13.5t-53.5 -38.5t-39.5 -60.5t-15.5 -78.5t15.5 -78t39.5 -60t53.5 -39
t57.5 -14t57.5 14t53.5 39t39.5 60t15.5 78t-15.5 78.5t-39.5 60.5t-53.5 38.5t-57.5 13.5zM224 705q19 0 34.5 -15t15.5 -34t-15.5 -34.5t-34.5 -15.5q-20 0 -34.5 15.5t-14.5 34.5t14.5 34t34.5 15zM376 705q20 0 34.5 -15t14.5 -34t-14.5 -34.5t-34.5 -15.5
q-19 0 -34.5 15.5t-15.5 34.5t15.5 34t34.5 15z" />
    <glyph glyph-name="divide" unicode="&#xf7;" 
d="M300 433q-23 0 -40.5 18t-17.5 40t17.5 40t40.5 18t40.5 -18t17.5 -40t-17.5 -40t-40.5 -18zM120 373h360v-68h-360v68zM300 129q-23 0 -40.5 18t-17.5 40t17.5 40t40.5 18t40.5 -18t17.5 -40t-17.5 -40t-40.5 -18z" />
    <glyph glyph-name="oslash" unicode="&#xf8;" 
d="M288 506q22 0 45 -10.5t44 -29.5l23 40l53 -32l-35 -60q19 -33 31 -74.5t12 -89.5q0 -55 -15.5 -102t-40 -81t-55.5 -53.5t-62 -19.5q-22 0 -45.5 11t-44.5 30l-24 -41l-53 32l36 62q-19 32 -30.5 73.5t-11.5 88.5q0 55 15.5 102.5t40 81t55.5 53t62 19.5zM288 441
q-18 0 -37 -13.5t-35 -38t-26 -60t-10 -79.5q0 -27 4 -51.5t11 -44.5l149 256q-13 15 -28 23t-28 8zM396 250q0 28 -4.5 53t-11.5 45l-149 -257q13 -16 28 -24t29 -8q18 0 37 13.5t35 38.5t26 60.5t10 78.5z" />
    <glyph glyph-name="ugrave" unicode="&#xf9;" 
d="M289 -6q-35 0 -68.5 12.5t-59 34.5t-41.5 51.5t-16 63.5v344h67v-341q0 -37 36.5 -69t85.5 -32q26 0 50.5 8.5t43 23t30 34t11.5 40.5v336h67v-500h-67v62q-25 -34 -63.5 -51t-75.5 -17zM174 710h90l68 -110h-63z" />
    <glyph glyph-name="uacute" unicode="&#xfa;" 
d="M289 -6q-35 0 -68.5 12.5t-59 34.5t-41.5 51.5t-16 63.5v344h67v-341q0 -37 36.5 -69t85.5 -32q26 0 50.5 8.5t43 23t30 34t11.5 40.5v336h67v-500h-67v62q-25 -34 -63.5 -51t-75.5 -17zM425 710l-95 -110h-63l68 110h90z" />
    <glyph glyph-name="ucircumflex" unicode="&#xfb;" 
d="M289 -6q-35 0 -68.5 12.5t-59 34.5t-41.5 51.5t-16 63.5v344h67v-341q0 -37 36.5 -69t85.5 -32q26 0 50.5 8.5t43 23t30 34t11.5 40.5v336h67v-500h-67v62q-25 -34 -63.5 -51t-75.5 -17zM357 600l-57 61l-57 -61h-56l74 110h78l74 -110h-56z" />
    <glyph glyph-name="udieresis" unicode="&#xfc;" 
d="M289 -6q-35 0 -68.5 12.5t-59 34.5t-41.5 51.5t-16 63.5v344h67v-341q0 -37 36.5 -69t85.5 -32q26 0 50.5 8.5t43 23t30 34t11.5 40.5v336h67v-500h-67v62q-25 -34 -63.5 -51t-75.5 -17zM223 696q19 0 34.5 -15t15.5 -34t-15.5 -34.5t-34.5 -15.5q-20 0 -34.5 15.5
t-14.5 34.5t14.5 34t34.5 15zM375 696q20 0 34.5 -15t14.5 -34t-14.5 -34.5t-34.5 -15.5q-19 0 -34.5 15.5t-15.5 34.5t15.5 34t34.5 15z" />
    <glyph glyph-name="yacute" unicode="&#xfd;" 
d="M542 500l-287 -675h-75l85 194l-217 481h76l178 -394l167 394h73zM432 710l-95 -110h-63l68 110h90z" />
    <glyph glyph-name="thorn" unicode="&#xfe;" 
d="M167 715v-298q31 40 74 64.5t83 24.5q36 0 75.5 -19.5t72 -53t54 -81t21.5 -102.5t-21.5 -102.5t-54 -81t-72 -53t-75.5 -19.5q-40 0 -83 24.5t-74 64.5v-258h-67v890h67zM167 202q0 -29 14.5 -55.5t36.5 -45.5t49 -30.5t52 -11.5t53 13.5t52 38t40 60t16 79.5t-16 79.5
t-40 60t-52 38t-53 13.5t-52 -11.5t-49 -30.5t-36.5 -45.5t-14.5 -55.5v-96z" />
    <glyph glyph-name="ydieresis" unicode="&#xff;" 
d="M542 500l-287 -675h-75l85 194l-217 481h76l178 -394l167 394h73zM228 696q19 0 34.5 -15t15.5 -34t-15.5 -34.5t-34.5 -15.5q-20 0 -34.5 15.5t-14.5 34.5t14.5 34t34.5 15zM380 696q20 0 34.5 -15t14.5 -34t-14.5 -34.5t-34.5 -15.5q-19 0 -34.5 15.5t-15.5 34.5
t15.5 34t34.5 15z" />
    <glyph glyph-name="Ccaron" unicode="&#x10c;" 
d="M244 900l57 -61l57 61h56l-74 -110h-78l-74 110h56zM538 477h-74q-23 83 -66.5 129t-89.5 46q-36 0 -70 -23.5t-59.5 -63t-41.5 -93.5t-16 -115t16 -114.5t41.5 -93.5t59.5 -63t70 -23q48 0 90 45.5t67 127.5h74q-14 -50 -37.5 -94.5t-53.5 -77t-66 -51.5t-74 -19
q-52 0 -99.5 30.5t-83 80.5t-56.5 116t-21 136t21 136t56.5 116.5t83 81t99.5 30.5q38 0 74 -18.5t66 -51t53.5 -77.5t36.5 -97z" />
    <glyph glyph-name="dotlessi" unicode="&#x131;" 
d="M108 62h166v376h-172v62h239v-438h166v-62h-399v62z" />
    <glyph glyph-name="Lslash" unicode="&#x141;" 
d="M54 327l66 27v361h70v-333l200 82v-71l-200 -82v-244h345v-67h-415v283l-66 -27v71z" />
    <glyph glyph-name="lslash" unicode="&#x142;" 
d="M108 62h166v242l-137 -73v71l137 73v278h-182v62h249v-304l131 70v-71l-131 -70v-278h166v-62h-399v62z" />
    <glyph glyph-name="OE" unicode="&#x152;" 
d="M195 721q28 0 52.5 -20t44.5 -56v70h263v-67h-193v-214h96v-67h-96v-300h203v-67h-273v71q-20 -37 -44.5 -57t-52.5 -20q-32 0 -63 27.5t-55 76t-38.5 115.5t-14.5 144q0 78 14.5 145t38.5 115.5t55 76t63 27.5zM195 652q-16 0 -34 -20t-33 -58t-24.5 -93t-9.5 -124
q0 -68 9.5 -122.5t24.5 -92.5t33 -58.5t34 -20.5t33.5 20.5t31.5 58.5t23 92.5t9 122.5q0 69 -9 124t-23 93t-31.5 58t-33.5 20z" />
    <glyph glyph-name="oe" unicode="&#x153;" 
d="M175 506q37 0 70.5 -31t53.5 -83q21 52 56 83t73 31q27 0 54.5 -17t49.5 -50t36.5 -83.5t15.5 -116.5h-252q3 -81 34 -129.5t62 -48.5t51.5 29.5t32.5 71.5h67q-6 -31 -20.5 -61t-34.5 -53.5t-45 -38.5t-51 -15q-39 0 -73.5 31t-56.5 83q-20 -52 -53 -83t-70 -31
q-29 0 -58 19.5t-51 53.5t-36 81t-14 102t14 102.5t36 81t51 53t58 19.5zM175 439q-32 0 -62 -51.5t-30 -137.5q0 -85 30 -137t62 -52t62 52t30 137q0 86 -30 137.5t-62 51.5zM428 439q-27 0 -54.5 -37.5t-37.5 -100.5h175q-7 60 -31 99t-52 39z" />
    <glyph glyph-name="Scaron" unicode="&#x160;" 
d="M506 524h-70q-10 64 -48.5 97.5t-89.5 33.5q-54 0 -91.5 -34t-37.5 -80q0 -48 37.5 -78t109.5 -56q38 -13 74.5 -30.5t65.5 -42t46.5 -58.5t17.5 -80q0 -41 -18 -78t-48 -64.5t-69.5 -43.5t-82.5 -16q-40 0 -78 13.5t-69.5 40t-55 68t-33.5 96.5h75q14 -75 58.5 -113.5
t102.5 -38.5q60 0 102 39t42 95q0 57 -44.5 89.5t-109.5 55.5q-38 14 -73.5 32t-62 41.5t-42 55t-15.5 72.5q0 38 15.5 71t43 57.5t64.5 38.5t79 14q77 0 134.5 -52.5t70.5 -144.5zM239 900l57 -61l57 61h56l-74 -110h-78l-74 110h56z" />
    <glyph glyph-name="scaron" unicode="&#x161;" 
d="M507 360h-69q-9 39 -44 63t-92 24q-59 0 -96.5 -22.5t-37.5 -54.5q0 -33 35.5 -52t108.5 -27q103 -12 154.5 -45t51.5 -100q0 -34 -18 -62.5t-47 -48t-67.5 -30.5t-78.5 -11t-78 10t-69 29.5t-52 49t-26 67.5h71q8 -47 52 -72t102 -25q27 0 53 6t45.5 17.5t31.5 27.5
t12 37q0 40 -37 58.5t-112 27.5q-101 12 -150.5 45.5t-49.5 91.5q0 29 15.5 55t42.5 45t64.5 30.5t80.5 11.5q75 0 133 -41t71 -105zM242 710l57 -61l57 61h56l-74 -110h-78l-74 110h56z" />
    <glyph glyph-name="Ydieresis" unicode="&#x178;" 
d="M301 328l-227 387h78l183 -315l144 315h75l-328 -715h-77zM247 895q19 0 34.5 -15t15.5 -34t-15.5 -34.5t-34.5 -15.5q-20 0 -34.5 15.5t-14.5 34.5t14.5 34t34.5 15zM399 895q20 0 34.5 -15t14.5 -34t-14.5 -34.5t-34.5 -15.5q-19 0 -34.5 15.5t-15.5 34.5t15.5 34
t34.5 15z" />
    <glyph glyph-name="Zcaron" unicode="&#x17d;" 
d="M514 654l-346 -587h346v-67h-430v61l346 587h-336v67h420v-61zM245 900l57 -61l57 61h56l-74 -110h-78l-74 110h56z" />
    <glyph glyph-name="zcaron" unicode="&#x17e;" 
d="M502 447l-317 -384h317v-63h-403v57l314 380h-313v63h402v-53zM244 710l57 -61l57 61h56l-74 -110h-78l-74 110h56z" />
    <glyph glyph-name="circumflex" unicode="&#x2c6;" 
d="M357 605l-57 61l-57 -61h-56l74 110h78l74 -110h-56z" />
    <glyph glyph-name="caron" unicode="&#x2c7;" 
d="M243 715l57 -61l57 61h56l-74 -110h-78l-74 110h56z" />
    <glyph glyph-name="breve" unicode="&#x2d8;" 
d="M410 715q-5 -51 -37 -82t-73 -31t-72.5 31t-36.5 82h53q4 -27 18.5 -43t37.5 -16t37.5 16t18.5 43h54z" />
    <glyph glyph-name="dotaccent" unicode="&#x2d9;" 
d="M300 718q24 0 41 -17.5t17 -40.5t-17 -40.5t-41 -17.5t-41 17.5t-17 40.5t17 40.5t41 17.5z" />
    <glyph glyph-name="ring" unicode="&#x2da;" 
d="M300 578q-34 0 -58 24t-24 58t24 58t58 24t58 -24t24 -58t-24 -58t-58 -24zM300 702q-17 0 -28.5 -12.5t-11.5 -29.5q0 -16 11.5 -28.5t28.5 -12.5t28.5 12.5t11.5 28.5q0 17 -11.5 29.5t-28.5 12.5z" />
    <glyph glyph-name="tilde" unicode="&#x2dc;" 
d="M352 619q-33 0 -55 15t-42 15q-10 0 -18 -7.5t-9 -23.5h-49q0 49 23.5 67.5t50.5 18.5q33 0 53.5 -15.5t40.5 -15.5q10 0 17 7t8 23h49q0 -49 -21 -66.5t-48 -17.5z" />
    <glyph glyph-name="endash" unicode="&#x2013;" 
d="M527 323v-68h-454v68h454z" />
    <glyph glyph-name="emdash" unicode="&#x2014;" 
d="M577 323v-68h-554v68h554z" />
    <glyph glyph-name="quoteleft" unicode="&#x2018;" 
d="M309 471q-31 0 -51.5 23t-20.5 69q0 87 34 122.5t87 35.5h7v-38h-8q-33 0 -51.5 -20.5t-19.5 -63.5q6 1 11.5 2t11.5 1q24 0 42.5 -19t18.5 -49q0 -25 -17 -44t-44 -19z" />
    <glyph glyph-name="quoteright" unicode="&#x2019;" 
d="M291 721q31 0 51.5 -23t20.5 -69q0 -87 -34 -122.5t-87 -35.5h-7v38h8q33 0 51.5 20.5t19.5 63.5q-6 -1 -11.5 -2t-11.5 -1q-24 0 -42.5 19t-18.5 49q0 25 17 44t44 19z" />
    <glyph glyph-name="quotesinglbase" unicode="&#x201a;" 
d="M291 126q31 0 51.5 -23t20.5 -69q0 -87 -34 -122.5t-87 -35.5h-7v38h8q33 0 51.5 20.5t19.5 63.5q-6 -1 -11.5 -2t-11.5 -1q-24 0 -42.5 19t-18.5 49q0 25 17 44t44 19z" />
    <glyph glyph-name="quotedblleft" unicode="&#x201c;" 
d="M399 471q-31 0 -51.5 23t-20.5 69q0 87 34 122.5t87 35.5h7v-38h-8q-33 0 -51.5 -20.5t-19.5 -63.5q6 1 11.5 2t11.5 1q24 0 42.5 -19t18.5 -49q0 -25 -17 -44t-44 -19zM217 471q-31 0 -51.5 23t-20.5 69q0 87 34 122.5t87 35.5h7v-38h-8q-33 0 -51.5 -20.5t-19.5 -63.5
q6 1 11.5 2t11.5 1q24 0 42.5 -19t18.5 -49q0 -25 -17 -44t-44 -19z" />
    <glyph glyph-name="quotedblright" unicode="&#x201d;" 
d="M201 721q31 0 51.5 -23t20.5 -69q0 -87 -34 -122.5t-87 -35.5h-7v38h8q33 0 51.5 20.5t19.5 63.5q-6 -1 -11.5 -2t-11.5 -1q-24 0 -42.5 19t-18.5 49q0 25 17 44t44 19zM383 721q31 0 51.5 -23t20.5 -69q0 -87 -34 -122.5t-87 -35.5h-7v38h8q33 0 51.5 20.5t19.5 63.5
q-6 -1 -11.5 -2t-11.5 -1q-24 0 -42.5 19t-18.5 49q0 25 17 44t44 19z" />
    <glyph glyph-name="quotedblbase" unicode="&#x201e;" 
d="M201 125q31 0 51.5 -23t20.5 -69q0 -87 -34 -122.5t-87 -35.5h-7v38h8q33 0 51.5 20.5t19.5 63.5q-6 -1 -11.5 -2t-11.5 -1q-24 0 -42.5 19t-18.5 49q0 25 17 44t44 19zM383 125q31 0 51.5 -23t20.5 -69q0 -87 -34 -122.5t-87 -35.5h-7v38h8q33 0 51.5 20.5t19.5 63.5
q-6 -1 -11.5 -2t-11.5 -1q-24 0 -42.5 19t-18.5 49q0 25 17 44t44 19z" />
    <glyph glyph-name="bullet" unicode="&#x2022;" 
d="M299 552q44 0 84 -17t69.5 -46.5t46.5 -69t17 -83.5t-17 -83.5t-46.5 -69t-69.5 -46.5t-84 -17t-83.5 17t-69 46.5t-46.5 69t-17 83.5t17 83.5t46.5 69t69 46.5t83.5 17z" />
    <glyph glyph-name="ellipsis" unicode="&#x2026;" horiz-adv-x="1200" 
d="M220 126q27 0 46.5 -20t19.5 -46t-19.5 -46t-46.5 -20t-46.5 20t-19.5 46t19.5 46t46.5 20zM600 126q27 0 46.5 -20t19.5 -46t-19.5 -46t-46.5 -20t-46.5 20t-19.5 46t19.5 46t46.5 20zM980 126q27 0 46.5 -20t19.5 -46t-19.5 -46t-46.5 -20t-46.5 20t-19.5 46t19.5 46
t46.5 20z" />
    <glyph glyph-name="perthousand" unicode="&#x2030;" 
d="M165 721q43 0 76 -32t33 -81q0 -48 -33 -80.5t-76 -32.5t-75.5 32.5t-32.5 80.5q0 49 32.5 81t75.5 32zM458 715l-315 -715h-62l315 715h62zM165 545q24 0 41 18.5t17 44.5q0 27 -17 45.5t-41 18.5q-23 0 -40 -18.5t-17 -45.5q0 -26 17 -44.5t40 -18.5zM434 386
q43 0 76 -32t33 -81q0 -40 -23 -68t-55 -38q8 -13 13 -28.5t5 -31.5q0 -48 -33 -80.5t-76 -32.5t-75.5 32.5t-32.5 80.5q0 40 23 68.5t54 37.5q-8 13 -12.5 28.5t-4.5 31.5q0 49 32.5 81t75.5 32zM434 210q24 0 41 18.5t17 44.5q0 27 -17 45.5t-41 18.5q-23 0 -40 -18.5
t-17 -45.5q0 -26 17 -44.5t40 -18.5zM374 44q24 0 41 18.5t17 44.5q0 27 -17 45.5t-41 18.5q-23 0 -40 -18.5t-17 -45.5q0 -26 17 -44.5t40 -18.5z" />
    <glyph glyph-name="guilsinglleft" unicode="&#x2039;" 
d="M170 287l155 213h79l-154 -213l154 -213h-79z" />
    <glyph glyph-name="guilsinglright" unicode="&#x203a;" 
d="M430 287l-155 -213h-79l154 213l-154 213h79z" />
    <glyph glyph-name="interrobang" unicode="&#x203d;" 
d="M112 521q1 48 15.5 85.5t39.5 62.5t58.5 38.5t71.5 13.5q40 0 73 -14t56 -36.5t36 -53t13 -63.5q0 -51 -22 -84t-76 -77q-18 -15 -29 -26t-17 -24.5t-8 -33t-2 -51.5l-1 -61h-57l-9 453q-31 -12 -50.5 -44t-20.5 -85h-71zM404 555q0 30 -20 59t-57 39l-5 -229
q5 5 11 10.5t11 9.5q30 25 45 50t15 61zM292 126q27 0 46.5 -20t19.5 -46t-19.5 -46t-46.5 -20t-46.5 20t-19.5 46t19.5 46t46.5 20z" />
    <glyph glyph-name="Euro" unicode="&#x20ac;" 
d="M44 323h62q-1 8 -1 17v17v17t1 17h-62v61h70q12 57 35.5 106.5t54 85.5t66 56.5t71.5 20.5t69.5 -18t61 -49t47.5 -71.5t30 -85.5h-74q-16 68 -53.5 111.5t-80.5 43.5t-89 -54.5t-65 -145.5h168l9 -61h-186q-1 -8 -1 -16.5v-17.5v-17.5t1 -16.5h197l10 -61h-198
q19 -90 65 -144.5t89 -54.5q44 0 80 43t55 110h74q-10 -43 -30.5 -83t-48 -71t-61 -49.5t-69.5 -18.5t-71.5 20.5t-66 56t-54 85t-35.5 106.5h-70v61z" />
    <glyph glyph-name="trademark" unicode="&#x2122;" 
d="M103 715h132v-37h-46v-142h-40v142h-46v37zM321 715l31 -106l30 106h57v-179h-36v129l-38 -129h-26l-38 133v-133h-36v179h56z" />
    <glyph glyph-name="uni2190" unicode="&#x2190;" 
d="M10 358l206 206h88l-172 -172h452v-68h-452l172 -173h-88z" />
    <glyph glyph-name="uni2191" unicode="&#x2191;" 
d="M300 715l206 -206v-88l-172 172v-593h-68v593l-173 -172v88z" />
    <glyph glyph-name="uni2192" unicode="&#x2192;" 
d="M590 358l-206 -207h-88l172 173h-452v68h452l-172 172h88z" />
    <glyph glyph-name="uni2193" unicode="&#x2193;" 
d="M300 0l-206 206v88l172 -172v593h68v-593l173 172v-88z" />
    <glyph glyph-name="uni2196" unicode="&#x2196;" 
d="M40 612h292l62 -62h-244l419 -419l-48 -48l-419 419v-244l-62 62v292z" />
    <glyph glyph-name="uni2197" unicode="&#x2197;" 
d="M560 617v-292l-62 -62v244l-419 -419l-48 48l419 419h-244l62 62h292z" />
    <glyph glyph-name="uni2198" unicode="&#x2198;" 
d="M560 93h-292l-62 62h244l-419 419l48 48l419 -419v244l62 -62v-292z" />
    <glyph glyph-name="uni2199" unicode="&#x2199;" 
d="M40 90v292l62 62v-244l419 419l48 -48l-419 -419h244l-62 -62h-292z" />
    <glyph glyph-name="minus" unicode="&#x2212;" 
d="M120 373h360v-68h-360v68z" />
    <glyph glyph-name="approxequal" unicode="&#x2248;" 
d="M394 375q-24 0 -49 7t-49 16t-45 16t-38 7q-16 0 -25 -9t-10 -29h-58q0 52 27 79.5t64 27.5q24 0 49 -7.5t47.5 -16t43.5 -16t38 -7.5q16 0 24 8.5t9 28.5h58q0 -51 -24.5 -78t-61.5 -27zM394 186q-24 0 -49 7t-49 16t-45 16t-38 7q-16 0 -25 -9t-10 -29h-58
q0 52 27 79.5t64 27.5q24 0 49 -7.5t47.5 -16t43.5 -16t38 -7.5q16 0 24 8.5t9 28.5h58q0 -51 -24.5 -78t-61.5 -27z" />
    <glyph glyph-name="notequal" unicode="&#x2260;" 
d="M120 275h122l54 127h-176v67h205l54 128h62l-53 -128h92v-67h-120l-53 -127h173v-67h-201l-53 -128h-67l54 128h-93v67z" />
    <glyph glyph-name="live.alt1" unicode="&#xea01;" horiz-adv-x="1800" 
d="M1495 357q0 -74 -47 -140.5t-127.5 -115.5t-189.5 -78t-231 -29t-231 29t-189.5 78.5t-127.5 116t-47 140.5t47 140.5t127.5 115.5t189.5 78t231 29t231 -29t189.5 -78.5t127.5 -116t47 -140.5zM1456 357q0 67 -44.5 127t-119.5 104.5t-177 71t-215 26.5t-214.5 -26
t-177 -70.5t-119.5 -104.5t-44 -127t44 -127t119.5 -104.5t177 -71t214.5 -26.5t215 26t177 70.5t119.5 104.5t44.5 127zM919 535q-1 -13 -11 -21.5t-23 -8.5t-20.5 9.5t-5.5 22.5q2 11 12 19.5t24 8.5q11 0 18.5 -9t5.5 -21zM734 250l-12 -33h-168l126 345h34l-113 -312
h133zM1233 295q-17 -35 -45.5 -58t-54.5 -23q-25 0 -42 25.5t-17 59.5q0 29 11 58t28.5 52.5t39.5 38t45 14.5q21 0 39 -19t18 -55q0 -12 -2.5 -26t-7.5 -30h-135q-2 -9 -3.5 -17.5t-1.5 -18.5q0 -19 8.5 -34t22.5 -15q17 0 34.5 12.5t27.5 35.5h35zM756 217l89 242h33
l-88 -242h-34zM1099 459l-161 -242h-34l13 242h33l-12 -190l124 190h37zM1195 429q-19 0 -40.5 -19.5t-34.5 -47.5h101q1 7 2 13t1 11q0 20 -8 31.5t-21 11.5z" />
    <glyph glyph-name="live.alt1reversed" unicode="&#xea02;" horiz-adv-x="1800" 
d="M1495 357q0 -74 -47 -140.5t-127.5 -115.5t-189.5 -78t-231 -29t-231 29t-189.5 78.5t-127.5 116t-47 140.5t47 140.5t127.5 115.5t189.5 78t231 29t231 -29t189.5 -78.5t127.5 -116t47 -140.5zM919 535q2 12 -5.5 21t-18.5 9q-14 0 -24 -8.5t-12 -19.5q-2 -13 5.5 -22.5
t20.5 -9.5t23 8.5t11 21.5zM734 250h-133l113 312h-34l-126 -345h168zM1233 295h-35q-10 -23 -27.5 -35.5t-34.5 -12.5q-14 0 -22.5 15t-8.5 34q0 10 1.5 18.5t3.5 17.5h135q5 16 7.5 30t2.5 26q0 36 -18 55t-39 19q-23 0 -45 -14.5t-39.5 -38t-28.5 -52.5t-11 -58
q0 -34 17 -59.5t42 -25.5q26 0 54.5 23t45.5 58zM756 217h34l88 242h-33zM1099 459h-37l-124 -190l12 190h-33l-13 -242h34zM1195 429q13 0 21 -11.5t8 -31.5q0 -5 -1 -11t-2 -13h-101q13 28 34.5 47.5t40.5 19.5z" />
    <glyph glyph-name="globe" unicode="&#xea03;" horiz-adv-x="1800" 
d="M1495 357q0 -74 -47 -140.5t-127.5 -115.5t-189.5 -78t-231 -29t-231 29t-189.5 78.5t-127.5 116t-47 140.5t47 140.5t127.5 115.5t189.5 78t231 29t231 -29t189.5 -78.5t127.5 -116t47 -140.5zM900 687q-37 0 -73.5 -40.5t-60.5 -106.5h268q-24 66 -60.5 106.5
t-73.5 40.5zM604 540h124q17 50 41 86.5t51 56.5h-3q-48 -12 -108 -48.5t-105 -94.5zM1072 540h124q-45 58 -105 94.5t-107 48.5h-2h-2q27 -20 51 -56.5t41 -86.5zM437 540h123q29 43 67.5 74.5t77.5 50.5q-81 -18 -150 -50.5t-118 -74.5zM1240 540h122q-49 42 -117 74
t-149 51q38 -20 76.5 -51t67.5 -74zM341 375h164q2 37 11 69.5t24 60.5h-138q-26 -30 -42 -63t-19 -67zM541 375h159q1 36 6 68.5t12 61.5h-138q-16 -28 -27 -60.5t-12 -69.5zM735 375h330q-1 34 -6.5 67t-13.5 63h-290q-8 -30 -13.5 -63t-6.5 -67zM1100 375h159
q-1 37 -12 69.5t-27 60.5h-138q7 -29 12 -61.5t6 -68.5zM1295 375h164q-3 34 -19 67t-42 63h-138q15 -28 24 -60.5t11 -69.5zM402 210h138q-14 28 -23.5 60.5t-11.5 69.5h-164q3 -34 19 -67t42 -63zM581 210h137q-7 29 -12 62t-6 68h-159q2 -37 13 -69.5t27 -60.5zM755 210
h290q8 30 13.5 63t6.5 67h-330q1 -34 6.5 -67t13.5 -63zM1082 210h137q16 28 27 60.5t13 69.5h-159q-1 -35 -6 -68t-12 -62zM1260 210h138q26 30 42 63t19 67h-164q-2 -37 -11.5 -69.5t-23.5 -60.5zM438 175q49 -42 117.5 -74.5t149.5 -50.5q-39 19 -77.5 50.5t-66.5 74.5
h-123zM817 32h1.5h1.5q-27 20 -51 56.5t-41 86.5h-124q22 -29 49.5 -53t56 -42t56 -30t51.5 -18zM900 28q37 0 73.5 40.5t60.5 106.5h-268q24 -66 60.5 -106.5t73.5 -40.5zM1072 175q-17 -50 -41.5 -87t-50.5 -56h3q24 6 51.5 18t56 30t56 42t49.5 53h-124zM1239 175
q-28 -43 -66.5 -74.5t-77.5 -51.5q81 19 150 51.5t118 74.5h-124z" />
    <glyph glyph-name="globe.reversed" unicode="&#xea04;" horiz-adv-x="1800" 
d="M900 721q41 0 81 -45t67 -117h-296q26 72 66.5 117t81.5 45zM573 559q25 32 55 58.5t61 46t62 33t57 20.5h4q-30 -22 -56.5 -62.5t-45.5 -95.5h-137zM1090 559q-19 55 -45.5 95.5t-56.5 62.5h5q26 -7 56.5 -20.5t61.5 -33t60.5 -46t54.5 -58.5h-136zM389 559
q54 46 130 82t166 56q-43 -22 -85.5 -56.5t-74.5 -81.5h-136zM1275 559q-32 47 -74.5 81.5t-84.5 56.5q89 -21 164.5 -56.5t129.5 -81.5h-135zM283 377q3 37 21 73.5t46 69.5h153q-16 -31 -26.5 -67t-12.5 -76h-181zM504 377q1 40 12.5 76t30.5 67h152q-8 -32 -13.5 -67.5
t-6.5 -75.5h-175zM718 377q1 37 7 73.5t15 69.5h320q9 -33 15 -69.5t7 -73.5h-364zM1120 377q-1 40 -6 75.5t-13 67.5h152q18 -31 30 -67t13 -76h-176zM1336 377q-3 40 -13 76t-26 67h152q29 -33 46.5 -69.5t21.5 -73.5h-181zM1297 195q16 31 26 67t13 76h181
q-4 -38 -21.5 -74t-46.5 -69h-152zM1101 195q8 32 13 68t6 75h176q-2 -40 -14 -76t-30 -67h-151zM740 195q-9 33 -15 69t-7 74h364q-1 -38 -7 -74t-15 -69h-320zM548 195q-18 31 -30 67t-14 76h175q1 -39 6.5 -75t13.5 -68h-151zM350 195q-28 33 -46 69t-21 74h181
q2 -40 12.5 -76t26.5 -67h-153zM390 156h136q31 -47 73.5 -81.5t85.5 -56.5q-90 20 -165.5 56t-129.5 82zM808 -2q-26 7 -56.5 20.5t-62 33t-61.5 46t-55 58.5h137q19 -55 45.5 -95.5t56.5 -62.5h-4zM900 -6q-41 0 -81.5 45t-66.5 117h296q-27 -72 -67 -117t-81 -45z
M1090 156h136q-25 -32 -55 -58.5t-61 -46t-62 -33t-57 -20.5h-3q29 22 56 62.5t46 95.5zM1274 156h137q-54 -46 -130 -82t-166 -57q43 22 85.5 57t73.5 82z" />
    <glyph glyph-name="live" unicode="&#xea05;" horiz-adv-x="1800" 
d="M1455 39h-1110q-33 0 -51.5 18.5t-18.5 51.5v490q0 33 18.5 51.5t51.5 18.5h1110q33 0 51.5 -18.5t18.5 -51.5v-490q0 -33 -18.5 -51.5t-51.5 -18.5zM1455 634h-1110q-16 0 -25.5 -9.5t-9.5 -25.5v-490q0 -16 9.5 -25.5t25.5 -9.5h1110q16 0 25.5 9.5t9.5 25.5v490
q0 16 -9.5 25.5t-25.5 9.5zM462 535v-328h140v-34h-175v362h35zM658 207h76v294h-73v34h182v-34h-73v-294h75v-34h-187v34zM986 173l-102 362h39l83 -305l83 305h37l-102 -362h-38zM1191 173v362h174v-34h-139v-108h76v-34h-76v-152h145v-34h-180z" />
    <glyph glyph-name="live.reversed" unicode="&#xea06;" horiz-adv-x="1800" 
d="M1455 39h-1110q-33 0 -51.5 18.5t-18.5 51.5v490q0 33 18.5 51.5t51.5 18.5h1110q33 0 51.5 -18.5t18.5 -51.5v-490q0 -33 -18.5 -51.5t-51.5 -18.5zM1191 173h180v34h-145v152h76v34h-76v108h139v34h-174v-362zM986 173h38l102 362h-37l-83 -305l-83 305h-39zM427 173
h175v34h-140v328h-35v-362zM845 173v34h-75v294h73v34h-182v-34h73v-294h-76v-34h187z" />
    <glyph glyph-name="pause" unicode="&#xea07;" horiz-adv-x="1200" 
d="M964 358q0 -74 -27.5 -140.5t-76 -116t-115.5 -78.5t-145 -29t-145 29t-115 78.5t-75.5 116t-27.5 140.5t27.5 140.5t75.5 115.5t115 78t145 29t145 -29t115.5 -78t76 -115.5t27.5 -140.5zM903 358q0 63 -22.5 118.5t-63 97t-96 65.5t-121.5 24q-65 0 -121 -24t-96 -65.5
t-62.5 -97t-22.5 -118.5t22.5 -119t62.5 -97t96 -65.5t121 -24.5q66 0 121.5 24.5t96 65.5t63 97t22.5 119zM499 483h71v-251h-71v251zM630 483h71v-251h-71v251z" />
    <glyph glyph-name="play" unicode="&#xea08;" horiz-adv-x="1200" 
d="M964 358q0 -74 -27.5 -140.5t-76 -116t-115.5 -78.5t-145 -29t-145 29t-115 78.5t-75.5 116t-27.5 140.5t27.5 140.5t75.5 115.5t115 78t145 29t145 -29t115.5 -78t76 -115.5t27.5 -140.5zM903 358q0 63 -22.5 118.5t-63 97t-96 65.5t-121.5 24q-65 0 -121 -24t-96 -65.5
t-62.5 -97t-22.5 -118.5t22.5 -119t62.5 -97t96 -65.5t121 -24.5q66 0 121.5 24.5t96 65.5t63 97t22.5 119zM517 210v294l216 -147z" />
    <glyph glyph-name="stop" unicode="&#xea09;" horiz-adv-x="1200" 
d="M964 358q0 -74 -27.5 -140.5t-76 -116t-115.5 -78.5t-145 -29t-145 29t-115 78.5t-75.5 116t-27.5 140.5t27.5 140.5t75.5 115.5t115 78t145 29t145 -29t115.5 -78t76 -115.5t27.5 -140.5zM903 358q0 63 -22.5 118.5t-63 97t-96 65.5t-121.5 24q-65 0 -121 -24t-96 -65.5
t-62.5 -97t-22.5 -118.5t22.5 -119t62.5 -97t96 -65.5t121 -24.5q66 0 121.5 24.5t96 65.5t63 97t22.5 119zM489 483h222v-251h-222v251z" />
    <glyph glyph-name="add" unicode="&#xea10;" horiz-adv-x="1200" 
d="M237 358q0 74 27.5 140.5t76 115.5t115.5 78t145 29t145 -29t115 -78t75.5 -115.5t27.5 -140.5t-27.5 -140.5t-75.5 -116t-115 -78.5t-145 -29t-145 29t-115.5 78.5t-76 116t-27.5 140.5zM298 358q0 -63 22.5 -119t63 -97t96 -65.5t121.5 -24.5q65 0 121 24.5t96 65.5
t62.5 97t22.5 119t-22.5 118.5t-62.5 97t-96 65.5t-121 24q-66 0 -121.5 -24t-96 -65.5t-63 -97t-22.5 -118.5zM567 501h68v-109h107v-68h-107v-109h-68v109h-107v68h107v109z" />
    <glyph glyph-name="one.circle" unicode="&#xea11;" horiz-adv-x="1200" 
d="M964 358q0 -74 -27.5 -140.5t-76 -116t-115.5 -78.5t-145 -29t-145 29t-115 78.5t-75.5 116t-27.5 140.5t27.5 140.5t75.5 115.5t115 78t145 29t145 -29t115.5 -78t76 -115.5t27.5 -140.5zM909 358q0 64 -23 121t-64 99t-98 66.5t-124 24.5t-123.5 -24.5t-97.5 -66.5
t-64 -99t-23 -121t23 -121t64 -99t97.5 -67t123.5 -25t124 25t98 67t64 99t23 121zM591 158v333l-86 -45v58l97 52h42v-398h-53z" />
    <glyph glyph-name="two.circle" unicode="&#xea12;" horiz-adv-x="1200" 
d="M964 358q0 -74 -27.5 -140.5t-76 -116t-115.5 -78.5t-145 -29t-145 29t-115 78.5t-75.5 116t-27.5 140.5t27.5 140.5t75.5 115.5t115 78t145 29t145 -29t115.5 -78t76 -115.5t27.5 -140.5zM909 358q0 64 -23 121t-64 99t-98 66.5t-124 24.5t-123.5 -24.5t-97.5 -66.5
t-64 -99t-23 -121t23 -121t64 -99t97.5 -67t123.5 -25t124 25t98 67t64 99t23 121zM486 436q4 57 39 90t78 33q46 0 79 -29.5t33 -80.5q0 -31 -21 -64.5t-50 -71.5l-78 -103h151v-52h-225v40l104 138q31 42 46.5 66.5t15.5 46.5t-14.5 38.5t-39.5 16.5t-42.5 -18.5
t-18.5 -49.5h-57z" />
    <glyph glyph-name="three.circle" unicode="&#xea13;" horiz-adv-x="1200" 
d="M964 358q0 -74 -27.5 -140.5t-76 -116t-115.5 -78.5t-145 -29t-145 29t-115 78.5t-75.5 116t-27.5 140.5t27.5 140.5t75.5 115.5t115 78t145 29t145 -29t115.5 -78t76 -115.5t27.5 -140.5zM909 358q0 64 -23 121t-64 99t-98 66.5t-124 24.5t-123.5 -24.5t-97.5 -66.5
t-64 -99t-23 -121t23 -121t64 -99t97.5 -67t123.5 -25t124 25t98 67t64 99t23 121zM567 354v52h29q28 0 43 16.5t15 35.5t-15 33t-34 14q-21 0 -40 -16t-23 -49h-57q4 51 40.5 85t79.5 34q46 0 76 -30t30 -67q0 -26 -13.5 -47t-42.5 -32q36 -10 56 -36t20 -66
q0 -51 -37.5 -88.5t-84.5 -37.5q-52 0 -90.5 38.5t-39.5 99.5h58q1 -42 23 -63t49 -21q23 0 44 19.5t21 52.5q0 35 -22 54t-57 19h-28z" />
    <glyph glyph-name="four.circle" unicode="&#xea14;" horiz-adv-x="1200" 
d="M964 358q0 -74 -27.5 -140.5t-76 -116t-115.5 -78.5t-145 -29t-145 29t-115 78.5t-75.5 116t-27.5 140.5t27.5 140.5t75.5 115.5t115 78t145 29t145 -29t115.5 -78t76 -115.5t27.5 -140.5zM909 358q0 64 -23 121t-64 99t-98 66.5t-124 24.5t-123.5 -24.5t-97.5 -66.5
t-64 -99t-23 -121t23 -121t64 -99t97.5 -67t123.5 -25t124 25t98 67t64 99t23 121zM597 158v145h-155v51l150 202h58v-202h65v-51h-65v-145h-53zM503 354h94v127z" />
    <glyph glyph-name="five.circle" unicode="&#xea15;" horiz-adv-x="1200" 
d="M964 358q0 -74 -27.5 -140.5t-76 -116t-115.5 -78.5t-145 -29t-145 29t-115 78.5t-75.5 116t-27.5 140.5t27.5 140.5t75.5 115.5t115 78t145 29t145 -29t115.5 -78t76 -115.5t27.5 -140.5zM909 358q0 64 -23 121t-64 99t-98 66.5t-124 24.5t-123.5 -24.5t-97.5 -66.5
t-64 -99t-23 -121t23 -121t64 -99t97.5 -67t123.5 -25t124 25t98 67t64 99t23 121zM470 291h58q7 -44 28 -63t42 -19q22 0 43 23t21 63t-17.5 64.5t-42.5 24.5q-18 0 -34 -9.5t-26 -19.5l-49 4l7 197h210v-52h-162l-2 -89q13 10 28.5 15.5t30.5 5.5q49 0 82 -38.5t33 -101.5
q0 -30 -10.5 -56t-28 -45t-39.5 -29.5t-44 -10.5q-41 0 -80.5 34.5t-47.5 101.5z" />
    <glyph glyph-name="six.circle" unicode="&#xea16;" horiz-adv-x="1200" 
d="M964 358q0 -74 -27.5 -140.5t-76 -116t-115.5 -78.5t-145 -29t-145 29t-115 78.5t-75.5 116t-27.5 140.5t27.5 140.5t75.5 115.5t115 78t145 29t145 -29t115.5 -78t76 -115.5t27.5 -140.5zM909 358q0 64 -23 121t-64 99t-98 66.5t-124 24.5t-123.5 -24.5t-97.5 -66.5
t-64 -99t-23 -121t23 -121t64 -99t97.5 -67t123.5 -25t124 25t98 67t64 99t23 121zM719 286q0 -51 -35.5 -90.5t-81.5 -39.5q-54 0 -94 48t-40 149q0 96 41 151t92 55q43 0 69.5 -31t34.5 -77h-58q-6 32 -19.5 43.5t-26.5 11.5q-28 0 -50 -33t-26 -97q15 20 37.5 31.5
t42.5 11.5q51 0 82.5 -39.5t31.5 -93.5zM602 210q25 0 42.5 23.5t17.5 51.5q0 31 -15.5 56.5t-44.5 25.5q-22 0 -43.5 -15.5t-32.5 -40.5q7 -57 29 -79t47 -22z" />
    <glyph glyph-name="seven.circle" unicode="&#xea17;" horiz-adv-x="1200" 
d="M964 358q0 -74 -27.5 -140.5t-76 -116t-115.5 -78.5t-145 -29t-145 29t-115 78.5t-75.5 116t-27.5 140.5t27.5 140.5t75.5 115.5t115 78t145 29t145 -29t115.5 -78t76 -115.5t27.5 -140.5zM909 358q0 64 -23 121t-64 99t-98 66.5t-124 24.5t-123.5 -24.5t-97.5 -66.5
t-64 -99t-23 -121t23 -121t64 -99t97.5 -67t123.5 -25t124 25t98 67t64 99t23 121zM542 158l119 346h-180v52h250v-23l-129 -375h-60z" />
    <glyph glyph-name="eight.circle" unicode="&#xea18;" horiz-adv-x="1200" 
d="M964 358q0 -74 -27.5 -140.5t-76 -116t-115.5 -78.5t-145 -29t-145 29t-115 78.5t-75.5 116t-27.5 140.5t27.5 140.5t75.5 115.5t115 78t145 29t145 -29t115.5 -78t76 -115.5t27.5 -140.5zM909 358q0 64 -23 121t-64 99t-98 66.5t-124 24.5t-123.5 -24.5t-97.5 -66.5
t-64 -99t-23 -121t23 -121t64 -99t97.5 -67t123.5 -25t124 25t98 67t64 99t23 121zM600 156q-51 0 -90 38.5t-39 89.5q0 34 19 64t50 45q-22 14 -33.5 32.5t-11.5 37.5q0 35 30.5 65.5t74.5 30.5t74.5 -30.5t30.5 -65.5q0 -19 -11.5 -37.5t-34.5 -32.5q31 -15 50 -45t19 -64
q0 -51 -38.5 -89.5t-89.5 -38.5zM600 510q-21 0 -35 -14.5t-14 -33.5q0 -17 14.5 -31.5t34.5 -14.5q19 0 34 14.5t15 31.5q0 19 -14.5 33.5t-34.5 14.5zM600 366q-28 0 -50 -23.5t-22 -54.5q0 -32 22 -56t50 -24t49.5 24t21.5 56q0 31 -21.5 54.5t-49.5 23.5z" />
    <glyph glyph-name="nine.circle" unicode="&#xea19;" horiz-adv-x="1200" 
d="M964 358q0 -74 -27.5 -140.5t-76 -116t-115.5 -78.5t-145 -29t-145 29t-115 78.5t-75.5 116t-27.5 140.5t27.5 140.5t75.5 115.5t115 78t145 29t145 -29t115.5 -78t76 -115.5t27.5 -140.5zM909 358q0 64 -23 121t-64 99t-98 66.5t-124 24.5t-123.5 -24.5t-97.5 -66.5
t-64 -99t-23 -121t23 -121t64 -99t97.5 -67t123.5 -25t124 25t98 67t64 99t23 121zM721 362q0 -50 -11 -89t-28.5 -64.5t-41 -39t-47.5 -13.5q-44 0 -75.5 32t-43.5 75h59q9 -29 25 -41.5t35 -12.5q25 0 46.5 31t25.5 103q-16 -21 -38.5 -32.5t-42.5 -11.5q-50 0 -82 39
t-32 92q0 50 35.5 89.5t84.5 39.5q53 0 92 -48t39 -149zM590 505q-28 0 -45.5 -23t-17.5 -52q0 -28 15.5 -53.5t44.5 -25.5q22 0 43.5 15.5t32.5 40.5q-7 55 -28.5 76.5t-44.5 21.5z" />
    <glyph glyph-name="ten.circle" unicode="&#xea20;" horiz-adv-x="1200" 
d="M964 358q0 -74 -27.5 -140.5t-76 -116t-115.5 -78.5t-145 -29t-145 29t-115 78.5t-75.5 116t-27.5 140.5t27.5 140.5t75.5 115.5t115 78t145 29t145 -29t115.5 -78t76 -115.5t27.5 -140.5zM909 358q0 64 -23 121t-64 99t-98 66.5t-124 24.5t-123.5 -24.5t-97.5 -66.5
t-64 -99t-23 -121t23 -121t64 -99t97.5 -67t123.5 -25t124 25t98 67t64 99t23 121zM699 559q24 0 47 -16t41 -43.5t28.5 -64.5t10.5 -78t-10.5 -78t-28.5 -64.5t-41 -43.5t-47 -16t-47 16t-41 43.5t-28.5 64.5t-10.5 78t10.5 78t28.5 64.5t41 43.5t47 16zM462 158v333
l-78 -42v58l90 49h42v-398h-54zM699 503q-13 0 -25.5 -12t-22 -32t-15.5 -46.5t-6 -55.5q0 -28 6 -54.5t15.5 -47t22 -32.5t25.5 -12q26 0 47.5 43t21.5 103t-21.5 103t-47.5 43z" />
    <glyph glyph-name="one.circlenegative" unicode="&#xea21;" horiz-adv-x="1200" 
d="M964 358q0 -74 -27.5 -140.5t-76 -116t-115.5 -78.5t-145 -29t-145 29t-115 78.5t-75.5 116t-27.5 140.5t27.5 140.5t75.5 115.5t115 78t145 29t145 -29t115.5 -78t76 -115.5t27.5 -140.5zM644 556h-42l-97 -52v-58l86 45v-333h53v398z" />
    <glyph glyph-name="two.circlenegative" unicode="&#xea22;" horiz-adv-x="1200" 
d="M964 358q0 -74 -27.5 -140.5t-76 -116t-115.5 -78.5t-145 -29t-145 29t-115 78.5t-75.5 116t-27.5 140.5t27.5 140.5t75.5 115.5t115 78t145 29t145 -29t115.5 -78t76 -115.5t27.5 -140.5zM717 210h-151l78 103q29 38 50 71.5t21 64.5q0 51 -33 80.5t-79 29.5
q-43 0 -78 -33t-39 -90h57q1 31 18.5 49.5t42.5 18.5t39.5 -16.5t14.5 -38.5t-15.5 -46.5t-46.5 -66.5l-104 -138v-40h225v52z" />
    <glyph glyph-name="three.circlenegative" unicode="&#xea23;" horiz-adv-x="1200" 
d="M964 358q0 -74 -27.5 -140.5t-76 -116t-115.5 -78.5t-145 -29t-145 29t-115 78.5t-75.5 116t-27.5 140.5t27.5 140.5t75.5 115.5t115 78t145 29t145 -29t115.5 -78t76 -115.5t27.5 -140.5zM567 354h28q35 0 57 -19t22 -54q0 -33 -21 -52.5t-44 -19.5q-27 0 -49 21t-23 63
h-58q1 -61 39.5 -99.5t90.5 -38.5q47 0 84.5 37.5t37.5 88.5q0 40 -20 66t-56 36q29 11 42.5 32t13.5 47q0 37 -30 67t-76 30q-43 0 -79.5 -34t-40.5 -85h57q4 33 23 49t40 16q19 0 34 -14t15 -33t-15 -35.5t-43 -16.5h-29v-52z" />
    <glyph glyph-name="four.circlenegative" unicode="&#xea24;" horiz-adv-x="1200" 
d="M964 358q0 -74 -27.5 -140.5t-76 -116t-115.5 -78.5t-145 -29t-145 29t-115 78.5t-75.5 116t-27.5 140.5t27.5 140.5t75.5 115.5t115 78t145 29t145 -29t115.5 -78t76 -115.5t27.5 -140.5zM715 303v51h-65v202h-58l-150 -202v-51h155v-145h53v145h65zM503 354l94 127
v-127h-94z" />
    <glyph glyph-name="five.circlenegative" unicode="&#xea25;" horiz-adv-x="1200" 
d="M964 358q0 -74 -27.5 -140.5t-76 -116t-115.5 -78.5t-145 -29t-145 29t-115 78.5t-75.5 116t-27.5 140.5t27.5 140.5t75.5 115.5t115 78t145 29t145 -29t115.5 -78t76 -115.5t27.5 -140.5zM720 296q0 63 -33 101.5t-82 38.5q-15 0 -30.5 -5.5t-28.5 -15.5l2 89h162v52
h-210l-7 -197l49 -4q10 10 26 19.5t34 9.5q25 0 42.5 -24.5t17.5 -64.5t-21 -63t-43 -23q-21 0 -42 19t-28 63h-58q8 -67 47.5 -101.5t80.5 -34.5q22 0 44 10.5t39.5 29.5t28 45t10.5 56z" />
    <glyph glyph-name="six.circlenegative" unicode="&#xea26;" horiz-adv-x="1200" 
d="M964 358q0 -74 -27.5 -140.5t-76 -116t-115.5 -78.5t-145 -29t-145 29t-115 78.5t-75.5 116t-27.5 140.5t27.5 140.5t75.5 115.5t115 78t145 29t145 -29t115.5 -78t76 -115.5t27.5 -140.5zM719 286q0 54 -31.5 93.5t-82.5 39.5q-20 0 -42.5 -11.5t-37.5 -31.5q4 64 26 97
t50 33q13 0 26.5 -11.5t19.5 -43.5h58q-8 46 -34.5 77t-69.5 31q-51 0 -92 -55t-41 -151q0 -101 40 -149t94 -48q46 0 81.5 39.5t35.5 90.5zM602 367q29 0 44.5 -25.5t15.5 -56.5q0 -28 -17.5 -51.5t-42.5 -23.5t-47 22t-29 79q11 25 32.5 40.5t43.5 15.5z" />
    <glyph glyph-name="seven.circlenegative" unicode="&#xea27;" horiz-adv-x="1200" 
d="M964 358q0 -74 -27.5 -140.5t-76 -116t-115.5 -78.5t-145 -29t-145 29t-115 78.5t-75.5 116t-27.5 140.5t27.5 140.5t75.5 115.5t115 78t145 29t145 -29t115.5 -78t76 -115.5t27.5 -140.5zM731 533v23h-250v-52h180l-119 -346h60z" />
    <glyph glyph-name="eight.circlenegative" unicode="&#xea28;" horiz-adv-x="1200" 
d="M964 358q0 -74 -27.5 -140.5t-76 -116t-115.5 -78.5t-145 -29t-145 29t-115 78.5t-75.5 116t-27.5 140.5t27.5 140.5t75.5 115.5t115 78t145 29t145 -29t115.5 -78t76 -115.5t27.5 -140.5zM600 156q51 0 89.5 38.5t38.5 89.5q0 34 -19 64t-50 45q23 14 34.5 32.5
t11.5 37.5q0 35 -30.5 65.5t-74.5 30.5t-74.5 -30.5t-30.5 -65.5q0 -19 11.5 -37.5t33.5 -32.5q-31 -15 -50 -45t-19 -64q0 -51 39 -89.5t90 -38.5zM600 510q20 0 34.5 -14.5t14.5 -33.5q0 -17 -15 -31.5t-34 -14.5q-20 0 -34.5 14.5t-14.5 31.5q0 19 14 33.5t35 14.5z
M600 366q28 0 49.5 -23.5t21.5 -54.5q0 -32 -21.5 -56t-49.5 -24t-50 24t-22 56q0 31 22 54.5t50 23.5z" />
    <glyph glyph-name="nine.circlenegative" unicode="&#xea29;" horiz-adv-x="1200" 
d="M964 358q0 -74 -27.5 -140.5t-76 -116t-115.5 -78.5t-145 -29t-145 29t-115 78.5t-75.5 116t-27.5 140.5t27.5 140.5t75.5 115.5t115 78t145 29t145 -29t115.5 -78t76 -115.5t27.5 -140.5zM721 362q0 101 -39 149t-92 48q-49 0 -84.5 -39.5t-35.5 -89.5q0 -53 32 -92
t82 -39q20 0 42.5 11.5t38.5 32.5q-4 -72 -25.5 -103t-46.5 -31q-19 0 -35 12.5t-25 41.5h-59q12 -43 43.5 -75t75.5 -32q24 0 47.5 13.5t41 39t28.5 64.5t11 89zM527 430q0 29 17.5 52t45.5 23q23 0 44.5 -21.5t28.5 -76.5q-11 -25 -32.5 -40.5t-43.5 -15.5
q-29 0 -44.5 25.5t-15.5 53.5z" />
    <glyph glyph-name="ten.circlenegative" unicode="&#xea30;" horiz-adv-x="1200" 
d="M964 358q0 -74 -27.5 -140.5t-76 -116t-115.5 -78.5t-145 -29t-145 29t-115 78.5t-75.5 116t-27.5 140.5t27.5 140.5t75.5 115.5t115 78t145 29t145 -29t115.5 -78t76 -115.5t27.5 -140.5zM699 559q-24 0 -47 -16t-41 -43.5t-28.5 -64.5t-10.5 -78t10.5 -78t28.5 -64.5
t41 -43.5t47 -16t47 16t41 43.5t28.5 64.5t10.5 78t-10.5 78t-28.5 64.5t-41 43.5t-47 16zM516 556h-42l-90 -49v-58l78 42v-333h54v398zM699 503q26 0 47.5 -43t21.5 -103t-21.5 -103t-47.5 -43q-13 0 -25.5 12t-22 32.5t-15.5 47t-6 54.5q0 29 6 55.5t15.5 46.5t22 32
t25.5 12z" />
    <glyph glyph-name="endash.ucaltR" unicode="&#xea31;" horiz-adv-x="1200" 
d="M1145 333q-58 -6 -117 -29.5t-106 -65t-77.5 -101t-30.5 -137.5h-73q0 66 19.5 118.5t50 92.5t66.5 69t69 48l-891 -4v68l891 -5q-33 19 -69 48t-66.5 69t-50 92.5t-19.5 118.5h73q0 -78 30.5 -137.5t77.5 -101t106 -65t117 -29.5v-49z" />
    <glyph glyph-name="emdash.ucaltR" unicode="&#xea32;" horiz-adv-x="1800" 
d="M1745 333q-58 -6 -117 -29.5t-106 -65t-77.5 -101t-30.5 -137.5h-73q0 66 20 118.5t50 92.5t66.5 69t68.5 48l-1491 -4v68l1491 -5q-32 19 -68.5 48t-66.5 69t-50 92.5t-20 118.5h73q0 -78 30.5 -137.5t77.5 -101t106 -65t117 -29.5v-49z" />
    <glyph glyph-name="ermdash.ucaltR" unicode="&#xea33;" horiz-adv-x="2400" 
d="M2345 333q-58 -6 -117 -29.5t-106 -65t-77.5 -101t-30.5 -137.5h-73q0 66 20 118.5t50 92.5t66.5 69t68.5 48l-2091 -4v68l2091 -5q-32 19 -68.5 48t-66.5 69t-50 92.5t-20 118.5h73q0 -78 30.5 -137.5t77.5 -101t106 -65t117 -29.5v-49z" />
    <glyph glyph-name="ermadash.ucaltR" unicode="&#xea34;" horiz-adv-x="4200" 
d="M4145 333q-58 -6 -117 -29.5t-106 -65t-77.5 -101t-30.5 -137.5h-73q0 66 20 118.5t50 92.5t66.5 69t68.5 48l-3891 -4v68l3891 -5q-32 19 -68.5 48t-66.5 69t-50 92.5t-20 118.5h73q0 -78 30.5 -137.5t77.5 -101t106 -65t117 -29.5v-49z" />
    <glyph glyph-name="endash.ucaltL" unicode="&#xea35;" horiz-adv-x="1200" 
d="M1145 324l-891 4q33 -19 69 -48t66.5 -69t50 -92.5t19.5 -118.5h-73q0 78 -30.5 137.5t-77.5 101t-106 65t-117 29.5v49q58 6 117 29.5t106 65t77.5 101t30.5 137.5h73q0 -66 -19.5 -118.5t-50 -92.5t-66.5 -69t-69 -48l891 5v-68z" />
    <glyph glyph-name="emdash.ucaltL" unicode="&#xea36;" horiz-adv-x="1800" 
d="M1745 323l-1491 5q32 -19 68.5 -48t66.5 -69t50 -92.5t20 -118.5h-73q0 78 -30.5 137.5t-77.5 101t-106 65t-117 29.5v49q58 6 117 29.5t106 65t77.5 101t30.5 137.5h73q0 -66 -20 -118.5t-50 -92.5t-66.5 -69t-68.5 -48l1491 4v-68z" />
    <glyph glyph-name="ermdash.ucaltL" unicode="&#xea37;" horiz-adv-x="2400" 
d="M2345 324l-2091 4q32 -19 68.5 -48t66.5 -69t50 -92.5t20 -118.5h-73q0 78 -30.5 137.5t-77.5 101t-106 65t-117 29.5v49q58 6 117 29.5t106 65t77.5 101t30.5 137.5h73q0 -66 -20 -118.5t-50 -92.5t-66.5 -69t-68.5 -48l2091 5v-68z" />
    <glyph glyph-name="ermadash.ucaltL" unicode="&#xea38;" horiz-adv-x="4200" 
d="M4145 324l-3891 4q32 -19 68.5 -48t66.5 -69t50 -92.5t20 -118.5h-73q0 78 -30.5 137.5t-77.5 101t-106 65t-117 29.5v49q58 6 117 29.5t106 65t77.5 101t30.5 137.5h73q0 -66 -20 -118.5t-50 -92.5t-66.5 -69t-68.5 -48l3891 5v-68z" />
    <glyph glyph-name="bullet.alt2" unicode="&#xea39;" horiz-adv-x="1200" 
d="M964 358q0 -75 -27.5 -141.5t-75.5 -115.5t-115 -78t-145 -29t-145 29t-115.5 78t-76 115.5t-27.5 141.5q0 74 27.5 140t76 115.5t115.5 78.5t145 29t145 -29t115 -78.5t75.5 -115.5t27.5 -140z" />
    <glyph glyph-name="ermdash" horiz-adv-x="1800" 
d="M1773 323v-68h-1746v68h1746z" />
    <glyph glyph-name="parenleft.lc" 
d="M442 -131h-74q-37 40 -69.5 89t-56.5 104.5t-38 118.5t-14 131t14 131t38 118.5t56.5 104.5t69.5 89h74q-37 -42 -69.5 -92t-57 -105.5t-38.5 -117.5t-14 -128t14 -128t38.5 -117.5t57 -105.5t69.5 -92z" />
    <glyph glyph-name="parenright.lc" 
d="M158 -131q37 42 69.5 92t57 105.5t38.5 117.5t14 128t-14 128t-38.5 117.5t-57 105.5t-69.5 92h74q37 -40 69.5 -89t56.5 -104.5t38 -118.5t14 -131t-14 -131t-38 -118.5t-56.5 -104.5t-69.5 -89h-74z" />
    <glyph glyph-name="bracketleft.lc" 
d="M205 -131v886h221v-62h-153v-762h158v-62h-226z" />
    <glyph glyph-name="bracketright.lc" 
d="M174 693v62h221v-886h-226v62h158v762h-153z" />
    <glyph glyph-name="braceleft.lc" 
d="M445 -130q-126 0 -172.5 40t-37.5 121l16 140q6 53 -22.5 78.5t-97.5 29.5v68q69 4 97.5 29.5t22.5 78.5l-16 140q-9 81 37.5 121t172.5 40v-61q-49 0 -78.5 -6.5t-45 -20t-19 -34.5t-0.5 -50l15 -124q7 -62 -19.5 -99.5t-90.5 -47.5q64 -10 90.5 -47.5t19.5 -99.5
l-15 -124q-3 -29 0.5 -50t19 -34.5t45 -20t78.5 -6.5v-61z" />
    <glyph glyph-name="braceright.lc" 
d="M155 -130v61q49 0 78.5 6.5t45 20t19 34.5t0.5 50l-15 124q-7 62 19.5 99.5t90.5 47.5q-64 10 -90.5 47.5t-19.5 99.5l15 124q3 29 -0.5 50t-19 34.5t-45 20t-78.5 6.5v61q126 0 172.5 -40t37.5 -121l-16 -140q-6 -53 22.5 -78.5t97.5 -29.5v-68q-69 -4 -97.5 -29.5
t-22.5 -78.5l16 -140q9 -81 -37.5 -121t-172.5 -40z" />
    <glyph glyph-name="hyphen.uc" 
d="M433 373v-68h-266v68h266z" />
    <glyph glyph-name="endash.uc" 
d="M527 373v-68h-454v68h454z" />
    <glyph glyph-name="emdash.uc" 
d="M577 373v-68h-554v68h554z" />
    <glyph glyph-name="ermdash.uc" horiz-adv-x="1800" 
d="M1773 373v-68h-1746v68h1746z" />
    <glyph glyph-name="zero.alt1" 
d="M300 721q40 0 80.5 -29t72 -78t51.5 -115.5t20 -141.5q0 -74 -20 -140t-51.5 -115.5t-72 -78.5t-80.5 -29q-41 0 -81 29t-71.5 78.5t-51.5 115.5t-20 140q0 75 20 141.5t51.5 115.5t71.5 78t81 29zM300 652q-25 0 -51.5 -21.5t-48.5 -60.5t-36.5 -93.5t-14.5 -119.5
q0 -64 14.5 -118.5t36.5 -93t48.5 -60.5t51.5 -22q24 0 51 22t49 60.5t36.5 93t14.5 118.5q0 65 -14.5 119.5t-36.5 93.5t-49 60.5t-51 21.5z" />
    <glyph glyph-name="one.alt1" 
d="M299 0v624l-189 -102v77l212 116h47v-715h-70z" />
    <glyph glyph-name="question.alt1" 
d="M129 559q1 66 47 114t124 48q73 0 114 -40t41 -97q0 -70 -41.5 -100.5t-106.5 -44.5q-52 -11 -78 -33t-26 -64q0 -40 25.5 -63.5t66.5 -23.5q50 0 76 30.5t30 75.5h67q-9 -79 -52 -124.5t-121 -45.5q-76 0 -119 45t-43 109q0 74 45.5 108t112.5 49q57 13 77 32.5t20 50.5
q0 30 -24 51t-64 21q-49 0 -74.5 -29t-26.5 -69h-70zM298 -6q-27 0 -46.5 20t-19.5 46t19.5 46t46.5 20t46.5 -20t19.5 -46t-19.5 -46t-46.5 -20z" />
    <glyph glyph-name="questiondown.alt1" 
d="M302 590q27 0 46.5 -20t19.5 -46t-19.5 -46t-46.5 -20t-46.5 20t-19.5 46t19.5 46t46.5 20zM471 25q-1 -66 -47 -114t-124 -48q-73 0 -114 40t-41 97q0 70 41.5 100.5t106.5 44.5q52 11 78 33t26 64q0 40 -25.5 63.5t-66.5 23.5q-50 0 -76 -30.5t-30 -75.5h-67
q9 79 52 124.5t121 45.5q76 0 119 -45t43 -109q0 -74 -45.5 -108t-112.5 -49q-57 -13 -77 -32.5t-20 -50.5q0 -30 24 -51t64 -21q49 0 74.5 29t26.5 69h70z" />
    <glyph glyph-name="bullet.alt1" 
d="M299 487q63 0 107.5 -44.5t44.5 -106.5t-44.5 -106.5t-107.5 -44.5q-61 0 -106 44.5t-45 106.5t45 106.5t106 44.5z" />
    <glyph glyph-name="interrobang.alt1" 
d="M129 559q1 66 47 114t124 48q73 0 114 -40t41 -97q0 -64 -35 -93.5t-91 -43.5l-4 -193q36 9 55.5 38t22.5 69h65q-9 -79 -52 -124.5t-121 -45.5q-76 0 -119 45t-43 109q0 66 37 98.5t94 48.5l-3 163q-31 -10 -47 -36t-17 -60h-68zM390 585q0 25 -15.5 44.5t-41.5 27.5
l-3 -147q34 13 47 31.5t13 43.5zM201 342q0 -36 18.5 -58.5t49.5 -29.5l-3 176q-32 -13 -48.5 -34t-16.5 -54zM298 -6q-27 0 -46.5 20t-19.5 46t19.5 46t46.5 20t46.5 -20t19.5 -46t-19.5 -46t-46.5 -20z" />
    <glyph glyph-name="uni2190.alt1" 
d="M584 324l-403 5q21 -14 42 -33t37 -41.5t26.5 -49t10.5 -54.5h-77q-1 73 -56 122.5t-149 56.5v56q94 7 149 56.5t56 122.5h77q0 -28 -10 -54t-26.5 -48t-37 -41t-41.5 -34l402 4v-68z" />
    <glyph glyph-name="uni2191.alt1" 
d="M507 433q-28 0 -54 10t-48.5 26.5t-41.5 37t-33 41.5l4 -548h-68l5 549q-14 -21 -33 -42t-41.5 -37t-49 -26.5t-54.5 -10.5v77q73 1 122.5 56t56.5 149h56q7 -94 56.5 -149t122.5 -56v-77z" />
    <glyph glyph-name="uni2192.alt1" 
d="M585 330q-94 -7 -149 -56.5t-56 -122.5h-77q0 28 10.5 54.5t26.5 49t37 41.5t42 33l-403 -5v68l402 -4q-21 15 -41.5 34t-37 41t-26.5 48t-10 54h77q1 -73 56 -122.5t149 -56.5v-56z" />
    <glyph glyph-name="uni2193.alt1" 
d="M507 205q-73 -1 -122.5 -56t-56.5 -149h-56q-7 94 -56.5 149t-122.5 56v77q28 0 54 -10t48.5 -26.5t41.5 -37t33 -41.5l-4 548h68l-5 -549q14 21 33 42t41.5 37t49 26.5t54.5 10.5v-77z" />
    <glyph glyph-name="uni2196.alt1" 
d="M579 130l-48 -48l-385 390q5 -25 6.5 -53t-3 -55.5t-15.5 -53t-31 -45.5l-55 55q51 52 47.5 126t-65.5 145l40 40q71 -62 145 -65.5t126 47.5l55 -55q-40 -40 -99.5 -46.5t-108.5 3.5z" />
    <glyph glyph-name="uni2197.alt1" 
d="M506 265q-20 20 -31 45.5t-15.5 53t-3 55.5t6.5 53l-385 -390l-48 48l391 385q-49 -10 -108.5 -3.5t-99.5 46.5l55 55q52 -51 126 -47.5t145 65.5l40 -40q-62 -71 -65.5 -145t47.5 -126z" />
    <glyph glyph-name="uni2198.alt1" 
d="M579 124l-40 -40q-71 62 -145 65.5t-126 -47.5l-55 55q40 40 99.5 46.5t108.5 -3.5l-391 385l48 48l385 -390q-5 25 -6.5 53t3 55.5t15.5 53t31 45.5l55 -55q-51 -52 -47.5 -126t65.5 -145z" />
    <glyph glyph-name="uni2199.alt1" 
d="M341 102q-52 51 -126 47.5t-145 -65.5l-40 40q62 71 65.5 145t-47.5 126l55 55q20 -20 31 -45.5t15.5 -53t3 -55.5t-6.5 -53l385 390l48 -48l-391 -385q49 10 108.5 3.5t99.5 -46.5z" />
  </font>
</defs>
</svg>
